<?xml version="1.0" standalone="no"?>
<!DOCTYPE svg PUBLIC "-//W3C//DTD SVG 1.1//EN" "http://www.w3.org/Graphics/SVG/1.1/DTD/svg11.dtd" >
<svg xmlns="http://www.w3.org/2000/svg">
<metadata></metadata>
<defs>
<font id="muroregular" horiz-adv-x="1069" >
<font-face units-per-em="2048" ascent="1536" descent="-512" />
<missing-glyph horiz-adv-x="591" />
<glyph horiz-adv-x="2048" />
<glyph horiz-adv-x="2048" />
<glyph unicode="&#xd;" horiz-adv-x="2048" />
<glyph unicode=" "  horiz-adv-x="591" />
<glyph unicode="&#x09;" horiz-adv-x="591" />
<glyph unicode="&#xa0;" horiz-adv-x="591" />
<glyph unicode="!" horiz-adv-x="505" d="M70 1464h366l-41 -979h-284zM80 0v346h346v-346h-346z" />
<glyph unicode="&#x22;" horiz-adv-x="720" d="M61 1462h271l-41 -471h-189zM389 1462h270l-41 -471h-188z" />
<glyph unicode="#" horiz-adv-x="1394" d="M61 358v224h207l66 286h-176v224h225l84 370h264l-84 -370h254l84 370h264l-84 -370h168v-224h-217l-65 -286h186v-224h-236l-79 -358h-265l80 358h-254l-80 -358h-264l80 358h-158zM532 582h254l66 286h-254z" />
<glyph unicode="$" horiz-adv-x="1058" d="M61 481h357q0 -39 0.5 -63t3.5 -53t8.5 -46t15 -33t24.5 -23t36 -7q32 0 51.5 9t28.5 29.5t11.5 41.5t2.5 57q0 48 -18 86.5t-48 65t-69 49.5t-82 45t-86 46.5t-82 58.5t-69 76.5t-48 105.5t-18 141q0 189 65 290t224 132v158h299v-152q307 -60 307 -498h-357 q0 49 -0.5 73t-2.5 55.5t-7 44.5t-14 27.5t-22 19t-33 4.5q-60 0 -75 -30t-15 -132q0 -45 18.5 -80.5t50.5 -60t73 -45.5t86.5 -42t91 -45t86.5 -59t73 -79t50.5 -110t18.5 -147q0 -340 -329 -401v-154h-299v148q-73 13 -127 44t-88.5 74.5t-55.5 104t-29 126t-8 148.5z" />
<glyph unicode="%" horiz-adv-x="1644" d="M49 1180q0 70 19.5 127t60.5 102.5t113 70.5t170 25q190 0 276 -89t86 -236q0 -70 -19 -127.5t-60 -103.5t-113 -71.5t-170 -25.5t-170 25.5t-113 71.5t-60.5 103.5t-19.5 127.5zM297 0l758 1462h305l-758 -1462h-305zM350 1180q0 -72 12.5 -101.5t49.5 -29.5 q36 0 48.5 29.5t12.5 101.5q0 71 -13 101t-48 30q-37 0 -49.5 -30t-12.5 -101zM870 285q0 70 19.5 127t60.5 102.5t113 70.5t170 25q190 0 276 -89t86 -236q0 -70 -19 -127.5t-60 -103.5t-113 -71.5t-170 -25.5t-170 25.5t-113 71.5t-60.5 103.5t-19.5 127.5zM1171 285 q0 -72 12.5 -101.5t49.5 -29.5q36 0 48.5 29.5t12.5 101.5q0 71 -13 101t-48 30q-37 0 -49.5 -30t-12.5 -101z" />
<glyph unicode="&#x26;" horiz-adv-x="1148" d="M61 377q0 69 21 134t51.5 107.5t60.5 75t51 47.5l21 15q-6 7 -16 20.5t-36 55t-45.5 82t-35.5 97t-16 105.5q0 77 20 140.5t64 117t123 83.5t188 30q201 0 294 -105.5t93 -294.5q0 -73 -24 -141t-57.5 -112.5t-67.5 -78.5t-58 -49l-24 -16l120 -184q27 100 27 190h272 q0 -261 -124 -458l155 -238h-309l-33 49q-120 -74 -264 -74q-98 0 -179 23.5t-142.5 71.5t-95.5 126t-34 181zM369 385q0 -66 42.5 -97.5t100.5 -31.5q64 0 113 27l-172 268q-3 -2 -9 -7t-20.5 -21t-25.5 -34t-20 -46t-9 -58zM416 1079q0 -38 18 -84t36 -73l19 -27q4 3 11 8 t25.5 23.5t32 38.5t25 51t11.5 63q0 146 -82 146q-40 0 -68 -33t-28 -113z" />
<glyph unicode="'" horiz-adv-x="393" d="M61 1462h271l-41 -471h-189z" />
<glyph unicode="(" horiz-adv-x="675" d="M115 600q0 131 21 260t55 231t75 195t82.5 160t75.5 116.5t55 73.5l21 25l139 -113q-9 -16 -24 -46.5t-53.5 -129t-68 -203t-53.5 -260.5t-24 -309t23 -307t56 -264.5t65.5 -199t55.5 -133.5l23 -44l-139 -113q-8 9 -22 25.5t-54 72.5t-76 118t-80.5 158.5t-76.5 196 t-54 229.5t-22 261z" />
<glyph unicode=")" horiz-adv-x="675" d="M37 -348q9 16 24 46.5t53.5 129t68 203t53.5 260.5t24 309t-23 307t-56 264.5t-65.5 199t-55.5 133.5l-23 44l139 113q8 -9 22 -25.5t54 -72.5t76 -118t80.5 -158.5t76.5 -196t54 -229.5t22 -261t-21 -260t-55 -231t-75.5 -195t-82.5 -160t-75 -116.5t-55 -73.5l-21 -25z " />
<glyph unicode="*" horiz-adv-x="847" d="M61 1153l70 197l229 -109l-41 250h207l-41 -250l238 109l63 -197l-251 -41l170 -178l-168 -127l-117 223l-117 -223l-172 127l180 178z" />
<glyph unicode="+" horiz-adv-x="972" d="M70 596v246h292v293h246v-293h295v-246h-295v-295h-246v295h-292z" />
<glyph unicode="," horiz-adv-x="393" d="M61 307h271l-41 -471h-189z" />
<glyph unicode="-" horiz-adv-x="849" d="M70 596v246h710v-246h-710z" />
<glyph unicode="." horiz-adv-x="434" d="M82 0v270h270v-270h-270z" />
<glyph unicode="/" horiz-adv-x="833" d="M70 0l430 1462h264l-430 -1462h-264z" />
<glyph unicode="0" horiz-adv-x="1028" d="M61 729q0 110 1.5 175t7.5 150t18.5 132.5t34 104.5t55 87t80 58.5t110.5 39.5t146 11t146 -11t110.5 -39.5t80 -58.5t55 -87t34 -104.5t18.5 -132.5t7.5 -150t1.5 -175q0 -91 -1 -146t-4 -127.5t-9.5 -115t-18 -96.5t-29 -84t-42 -65.5t-57.5 -54t-76 -35.5t-96.5 -23.5 t-119.5 -6.5t-119.5 6.5t-96.5 23.5t-76 35.5t-57.5 54t-42 65.5t-29 84t-18 96.5t-9.5 115t-4 127.5t-1 146zM420 729q0 -98 1 -162.5t5 -121t10 -88.5t17 -55.5t25.5 -32.5t35.5 -9t35.5 9t25.5 32.5t17 55.5t10 88.5t5 121t1 162.5q0 280 -17.5 376.5t-76.5 96.5 t-76.5 -96.5t-17.5 -376.5z" />
<glyph unicode="1" horiz-adv-x="735" d="M41 842v325q50 0 96.5 30.5t76 73.5t52.5 86.5t33 74.5l10 30h324v-1462h-326v971q-4 -5 -11.5 -14t-33.5 -31t-55 -39t-74 -31t-92 -14z" />
<glyph unicode="2" horiz-adv-x="1013" d="M61 0q0 115 18 214t49 170.5t70.5 132.5t84 107t88.5 88t83.5 82.5t70.5 82t49 94t18 112.5q0 63 -18.5 89t-67.5 26q-42 0 -62 -50t-20 -118h-352q0 227 114 351t320 124q233 0 339.5 -109.5t106.5 -338.5q0 -73 -26 -142t-67 -124.5t-91 -108t-100.5 -101t-91.5 -95 t-67 -98.5t-26 -103h432v-285h-854z" />
<glyph unicode="3" horiz-adv-x="1024" d="M61 238l236 174q3 -6 8.5 -16t23.5 -35.5t38.5 -45t52.5 -35.5t65 -16q144 0 144 162q0 77 -32.5 127.5t-94.5 50.5h-101v254h101q62 0 94.5 50.5t32.5 127.5q0 162 -144 162q-33 0 -65 -15t-53 -37t-37.5 -43.5t-24.5 -36.5l-8 -15l-236 174q2 6 7 16t23.5 39t40 55.5 t59 59t80 55.5t102 39t125.5 16q101 0 181 -24t132.5 -65t87 -98t49.5 -119t15 -132q0 -226 -140 -336q140 -109 140 -332q0 -70 -15 -132.5t-49.5 -120t-87 -99t-132.5 -66t-181 -24.5q-66 0 -125.5 15.5t-102 40.5t-79 54.5t-60 59.5t-40 55t-23.5 40z" />
<glyph unicode="4" horiz-adv-x="1052" d="M61 330v295l455 837h367v-837h108v-295h-108v-330h-326v330h-496zM369 625h188v366z" />
<glyph unicode="5" horiz-adv-x="1015" d="M61 432h353q0 -188 88 -188q61 0 77.5 47t16.5 190q0 138 -25.5 197t-87.5 59q-25 0 -43.5 -7.5t-27 -17.5t-13.5 -20.5t-5 -17.5l-1 -8h-301v796h819v-325h-518v-199q8 6 23 15.5t65 25.5t105 16q169 0 268.5 -131t99.5 -383q0 -108 -13 -188t-45 -145.5t-85.5 -106 t-135.5 -62.5t-194 -22q-204 0 -312 123t-108 352z" />
<glyph unicode="6" horiz-adv-x="1042" d="M61 729q0 115 5 202t17.5 171.5t35 144t57 111t83.5 82.5t115.5 48t151.5 17q227 0 331 -121t104 -354h-353q0 92 -18 141.5t-64 49.5q-45 0 -69 -29.5t-35 -100t-14 -208.5q90 39 176 39q397 0 397 -461q0 -504 -418 -504q-106 0 -185.5 20t-135 65t-91 105t-55.5 151.5 t-27.5 191.5t-7.5 239zM408 596q2 -149 14.5 -223t39.5 -102.5t81 -28.5q74 0 101.5 53.5t27.5 155.5q0 95 -27.5 139.5t-101.5 44.5q-54 0 -135 -39z" />
<glyph unicode="7" horiz-adv-x="911" d="M61 1182v280h789l-293 -1462h-344l236 1182h-388z" />
<glyph unicode="8" horiz-adv-x="1026" d="M61 377q0 69 19.5 133t47.5 105.5t55.5 73t46.5 45.5l20 14q-6 5 -16 15.5t-35.5 44.5t-45 70.5t-35.5 93.5t-16 115q0 400 410 400q204 0 308 -107t104 -293q0 -58 -15 -113.5t-37 -93.5t-44 -68t-37 -44l-15 -14q8 -5 20.5 -15.5t45 -46t57.5 -75.5t45.5 -105.5 t20.5 -134.5q0 -214 -106.5 -317t-344.5 -103q-453 0 -453 420zM399 371q0 -78 35.5 -112t79.5 -34q41 0 71.5 33.5t30.5 112.5q0 38 -12 74.5t-29.5 62t-35 45.5t-29.5 29l-12 10q-4 -4 -10.5 -12t-24 -32t-30.5 -49t-23.5 -60t-10.5 -68zM416 1079q0 -49 22 -95.5 t44 -68.5l22 -22q4 3 10 8.5t21.5 24t27.5 38.5t21.5 51.5t9.5 63.5q0 81 -22 112.5t-60 31.5q-96 0 -96 -144z" />
<glyph unicode="9" horiz-adv-x="1042" d="M61 999q0 78 10 145t38.5 135.5t74 116t121.5 77.5t176 30q91 0 162 -16t123.5 -45.5t90 -79t62 -108.5t38 -143t19 -173t5.5 -207q0 -115 -5 -202t-17.5 -171.5t-35 -144t-57 -111t-83.5 -82.5t-115.5 -48t-151.5 -17q-227 0 -330.5 121t-103.5 354h352 q0 -93 17.5 -141.5t64.5 -48.5q63 0 89 84t28 270q-5 -5 -15.5 -11.5t-50.5 -18t-88 -11.5q-215 0 -316.5 118.5t-101.5 327.5zM371 1010q0 -40 2 -65.5t10 -50.5t22.5 -38.5t39.5 -22t61 -8.5t68 10.5t46 20.5l15 10q0 144 -12 218.5t-39.5 104.5t-81.5 30 q-74 0 -102.5 -54t-28.5 -155z" />
<glyph unicode=":" horiz-adv-x="401" d="M66 0v270h270v-270h-270zM66 657v271h270v-271h-270z" />
<glyph unicode=";" horiz-adv-x="401" d="M66 307h270l-41 -471h-189zM66 657v271h270v-271h-270z" />
<glyph unicode="&#x3c;" horiz-adv-x="851" d="M86 635v166l680 471v-287l-436 -268l436 -266v-287z" />
<glyph unicode="=" horiz-adv-x="808" d="M70 258v266h669v-266h-669zM70 729v266h669v-266h-669z" />
<glyph unicode="&#x3e;" horiz-adv-x="851" d="M86 164v287l436 266l-436 268v287l680 -471v-166z" />
<glyph unicode="?" horiz-adv-x="1034" d="M70 1065q0 508 436 508q137 0 226.5 -25t141 -82t71.5 -135t20 -196q0 -63 -18.5 -112.5t-48 -81t-65 -58t-71 -50.5t-65 -51t-48 -67.5t-18.5 -91.5v-111h-346v111q0 79 17 141t44.5 100.5t60.5 68t66.5 50.5t61 40.5t44.5 45t17 57.5q0 98 -16 130t-66 32 q-88 0 -88 -223h-356zM285 0v346h346v-346h-346z" />
<glyph unicode="@" horiz-adv-x="1585" d="M61 731q0 366 201.5 573t564.5 207q147 0 265.5 -37.5t198 -101.5t133 -151.5t77 -184t23.5 -202.5q0 -68 -12.5 -131t-42 -122t-72.5 -102.5t-109.5 -69.5t-148.5 -26q-61 0 -110 9t-75 22t-44 26t-24 22l-5 9q-2 -3 -6.5 -8t-21 -18t-37 -22.5t-55.5 -17.5t-75 -8 q-110 0 -175 77.5t-65 221.5q0 177 98.5 275t266.5 98q65 0 133 -8.5t104 -17.5l35 -9q-6 -163 -6 -286q0 -87 19 -120.5t65 -33.5q71 0 99 58t28 182q0 104 -24.5 186t-77 146t-143.5 99t-216 35q-126 0 -225.5 -43t-163 -119.5t-96.5 -180t-33 -226.5q0 -277 140 -424 t397 -147q95 0 186.5 16t154 39t111 45.5t72.5 38.5l23 16l80 -194q-12 -7 -33 -18t-89 -39t-138 -50t-171 -39.5t-196 -17.5q-381 0 -583 203t-202 571zM659 700q0 -135 91 -135q33 0 63 12.5t43 25.5l14 13v89q0 42 2 85.5t4 65.5l1 23l-11 1q-10 0 -24.5 0.5t-24.5 0.5 q-158 0 -158 -181z" />
<glyph unicode="A" horiz-adv-x="1103" d="M61 0l328 1462h326l327 -1462h-325l-37 223h-256l-37 -223h-326zM467 487h168l-84 514z" />
<glyph unicode="B" horiz-adv-x="1005" d="M61 0v1462h326q289 0 402.5 -88t113.5 -317q0 -130 -28.5 -208t-96.5 -120q36 -23 54.5 -37t43.5 -42t37.5 -59t21.5 -81t9 -115q0 -73 -12.5 -129.5t-35 -98t-59.5 -71.5t-80 -48.5t-103.5 -29t-122.5 -14.5t-144 -4h-326zM387 266q65 0 103.5 6t70 25t44.5 56t13 98 t-13 98t-44.5 55.5t-69.5 24.5t-104 6v-369zM387 829q64 0 97.5 5.5t56.5 26t30 55t7 98.5t-7 98.5t-30 54.5t-56.5 25.5t-97.5 5.5v-369z" />
<glyph unicode="C" horiz-adv-x="1064" d="M61 729q0 126 5 217t18.5 174.5t37.5 139.5t60.5 102t89.5 72t122 39.5t161 13.5q230 0 339.5 -135.5t109.5 -372.5h-357q0 53 -4.5 90.5t-15.5 69.5t-33 47.5t-55 15.5q-27 0 -44.5 -7t-31.5 -28t-22 -52t-13 -87.5t-6.5 -125t-1.5 -173.5q0 -108 1.5 -176.5t6.5 -125 t12 -86t21.5 -49.5t31.5 -26t44 -6q63 0 86.5 56t23.5 167h357q0 -237 -109.5 -372.5t-339.5 -135.5q-82 0 -145.5 8.5t-114 29.5t-86.5 49.5t-63 76t-43 100.5t-25.5 131.5t-13 161.5t-3.5 197z" />
<glyph unicode="D" horiz-adv-x="1005" d="M61 0v1462h388q91 0 158.5 -11.5t121.5 -35t90 -66.5t61 -97.5t38.5 -138t19.5 -179t6 -227.5v49q0 -155 -7.5 -261t-28.5 -195.5t-55 -143t-91 -90.5t-132 -51.5t-181 -14.5h-388zM387 264q43 0 67.5 1.5t52.5 9t41 19.5t28.5 38t21.5 59t11.5 88t7 119.5t1.5 157.5v-49 q0 74 -1 129t-4.5 104t-6.5 82.5t-12 62.5t-16.5 46t-23.5 31t-29 20t-37.5 10.5t-45 5t-55.5 0.5v-934z" />
<glyph unicode="E" horiz-adv-x="802" d="M61 0v1462h680v-284h-354v-289h252v-285h-252v-319h354v-285h-680z" />
<glyph unicode="F" horiz-adv-x="802" d="M61 0v1462h680v-284h-354v-299h252v-285h-252v-594h-326z" />
<glyph unicode="G" horiz-adv-x="1064" d="M61 729q0 126 5 217t18.5 174.5t37.5 139.5t60.5 102t89.5 72t122 39.5t161 13.5q230 0 339.5 -135.5t109.5 -372.5h-357q0 53 -4.5 90.5t-15.5 69.5t-33 47.5t-55 15.5q-27 0 -44.5 -7t-31.5 -28t-22 -52t-13 -87.5t-6.5 -125t-1.5 -173.5q0 -108 1.5 -176.5t6.5 -125 t12 -86t21.5 -49.5t31.5 -26t44 -6q61 0 85.5 52.5t24.5 154.5v63h-117v265h474v-795h-105l-27 96q-118 -121 -317 -121q-82 0 -145.5 8.5t-114 29.5t-86.5 49.5t-63 76t-43 100.5t-25.5 131.5t-13 161.5t-3.5 197z" />
<glyph unicode="H" horiz-adv-x="993" d="M61 0v1462h326v-604h219v604h326v-1462h-326v573h-219v-573h-326z" />
<glyph unicode="I" horiz-adv-x="448" d="M61 0v1462h326v-1462h-326z" />
<glyph unicode="J" horiz-adv-x="974" d="M61 502h359q0 -101 11 -154.5t30 -70.5t53 -17q16 0 26 6.5t20 32.5t15.5 75.5t9 137.5t3.5 217v733h325v-733q0 -164 -3.5 -261t-17.5 -193t-39 -144.5t-70.5 -88.5t-110 -53.5t-158.5 -13.5q-93 0 -163 13t-120.5 42.5t-83 70.5t-52 102.5t-27 132t-7.5 166.5z" />
<glyph unicode="K" horiz-adv-x="1083" d="M61 0v1462h326v-639l242 637h393l-381 -731l381 -729h-393l-242 641v-641h-326z" />
<glyph unicode="L" horiz-adv-x="782" d="M61 0v1462h326v-1177h334v-285h-660z" />
<glyph unicode="M" horiz-adv-x="1193" d="M61 0v1462h347l190 -766l188 766h347v-1462h-326v659l-107 -659h-202l-111 659v-659h-326z" />
<glyph unicode="N" horiz-adv-x="1110" d="M61 0v1462h324l338 -764v764h326v-1462h-326l-336 723v-723h-326z" />
<glyph unicode="O" d="M61 729q0 88 1.5 151t5.5 131.5t12 116t21 97.5t32 83t45 65t60.5 51t78.5 34.5t98 22t120 6.5t120 -6.5t98 -22t78 -34.5t60.5 -51t45 -65t31.5 -83t21 -97t12 -116t5.5 -132t1.5 -151q0 -91 -1.5 -155.5t-5.5 -134t-12 -116.5t-21 -97t-31.5 -81.5t-45 -62.5t-60.5 -49 t-78 -32t-98 -20t-120 -6t-120 6t-98 20t-78 32t-60.5 49t-45.5 62.5t-32 81.5t-21 97t-12 116.5t-5.5 134t-1.5 155.5zM420 729q0 -109 1.5 -176.5t6 -125t11.5 -86t21 -49t31 -26.5t44 -6t44 5.5t30.5 26.5t20.5 49.5t12 86.5t6 124.5t1 176.5q0 107 -1 173.5t-6 125 t-12 88t-20.5 51.5t-30.5 28.5t-44 6.5t-44 -6.5t-31 -28.5t-21 -52t-11.5 -88t-6 -124.5t-1.5 -173.5z" />
<glyph unicode="P" horiz-adv-x="964" d="M61 0v1462h326q278 0 397 -126t119 -382q0 -241 -119.5 -363t-396.5 -122v-469h-326zM387 727q115 0 153 48.5t38 176.5q0 131 -39 188.5t-152 57.5v-471z" />
<glyph unicode="Q" horiz-adv-x="1114" d="M61 729q0 108 3 186t12 156t25 132t42 104t62.5 81t87 55t115 34t147.5 10q74 0 133.5 -9t107.5 -25t84.5 -44.5t64 -62t46.5 -83t31 -101t19 -123.5t9.5 -143.5t2.5 -166.5q0 -111 -3.5 -191.5t-13.5 -160.5t-27.5 -134.5t-46 -104t-69 -81t-96 -52.5t-127.5 -30 q54 -71 145 -71q59 0 133 18q0 -235 -2 -235q-104 -19 -176 -19q-143 0 -226 81.5t-83 223.5q-67 6 -119 20.5t-93 40.5t-70.5 58t-50.5 81t-34 101t-20.5 127t-10 150t-2.5 178zM420 729q0 -111 1.5 -178t6.5 -128t13.5 -91t24 -53t36.5 -30t53 -7t53.5 7.5t37.5 32 t24.5 55t13.5 91.5t6.5 126.5t1.5 174.5t-1.5 174t-6.5 124t-13.5 88t-24.5 51.5t-37 29t-54 6.5q-32 0 -53 -6.5t-36.5 -29t-24 -51.5t-13.5 -88t-6.5 -124t-1.5 -174z" />
<glyph unicode="R" horiz-adv-x="993" d="M61 0v1462h326q282 0 399 -105.5t117 -340.5q0 -133 -29 -220t-96 -128q59 -46 90 -138.5t35.5 -180.5t10 -194t18.5 -155h-326q-9 42 -10.5 127t-2.5 155.5t-22 147.5t-65 121h-119v-551h-326zM387 768q117 0 154 40.5t37 164.5q0 128 -38 176.5t-153 48.5v-430z" />
<glyph unicode="S" horiz-adv-x="966" d="M61 500h357q0 -64 1 -95t6 -71.5t19 -57t37 -16.5q34 0 46 32.5t12 100.5q0 54 -25.5 98.5t-66 77t-89 64.5t-97.5 70.5t-89.5 85t-66 118t-25.5 160.5q0 117 18.5 193t66 129t128 75.5t205.5 22.5q407 0 407 -508h-356q0 136 -11 179.5t-49 43.5q-35 0 -48 -29t-13 -114 q0 -52 26 -95.5t67 -76t90.5 -65t99.5 -71.5t91 -85.5t67 -117.5t26 -157q0 -59 -3 -101t-13 -88.5t-28 -78t-49 -61.5t-74 -48t-105 -28.5t-142 -10.5q-103 0 -178.5 26.5t-121.5 71t-73.5 113.5t-37 143t-9.5 171z" />
<glyph unicode="T" horiz-adv-x="1034" d="M61 1178v284h912v-284h-293v-1178h-326v1178h-293z" />
<glyph unicode="U" d="M61 649v813h332v-813q0 -86 2 -143t7.5 -105.5t15 -76t26 -47t38 -26.5t53.5 -7q38 0 62 12t40.5 36.5t24.5 75t11 114t3 167.5v813h332v-813q0 -110 -4.5 -193t-16.5 -153t-28.5 -118.5t-45 -86.5t-62 -60.5t-83 -37t-104.5 -20t-129 -5.5q-100 0 -167.5 10t-123.5 38.5 t-88.5 74t-55 123.5t-31 179.5t-8.5 248.5z" />
<glyph unicode="V" horiz-adv-x="1144" d="M61 1462h347l163 -981l166 981h346l-348 -1462h-325z" />
<glyph unicode="W" horiz-adv-x="1656" d="M61 1462h347l122 -882l166 882h265l163 -882l125 882h346l-307 -1462h-325l-136 745l-133 -745h-325z" />
<glyph unicode="X" horiz-adv-x="1165" d="M61 0l338 731l-338 731h367l154 -438l155 438h367l-338 -731l338 -731h-367l-155 436l-154 -436h-367z" />
<glyph unicode="Y" horiz-adv-x="1163" d="M61 1462h345l176 -499l176 499h344l-357 -809v-653h-327v653z" />
<glyph unicode="Z" horiz-adv-x="983" d="M61 0v285l498 893h-436v284h799v-284l-514 -893h481v-285h-828z" />
<glyph unicode="[" horiz-adv-x="630" d="M111 -397v2062h458v-203h-215v-1657h215v-202h-458z" />
<glyph unicode="\" horiz-adv-x="833" d="M70 1462h264l430 -1462h-264z" />
<glyph unicode="]" horiz-adv-x="630" d="M61 -195h215v1657h-215v203h459v-2062h-459v202z" />
<glyph unicode="^" horiz-adv-x="1435" d="M61 778l553 680h207l553 -680h-307l-348 416l-350 -416h-308z" />
<glyph unicode="_" horiz-adv-x="1120" d="M70 0v246h981v-246h-981z" />
<glyph unicode="`" horiz-adv-x="706" d="M61 1622h383l213 -242h-305z" />
<glyph unicode="a" horiz-adv-x="1103" d="M61 0l328 1462h326l327 -1462h-325l-37 223h-256l-37 -223h-326zM467 487h168l-84 514z" />
<glyph unicode="b" horiz-adv-x="1005" d="M61 0v1462h326q289 0 402.5 -88t113.5 -317q0 -130 -28.5 -208t-96.5 -120q36 -23 54.5 -37t43.5 -42t37.5 -59t21.5 -81t9 -115q0 -73 -12.5 -129.5t-35 -98t-59.5 -71.5t-80 -48.5t-103.5 -29t-122.5 -14.5t-144 -4h-326zM387 266q65 0 103.5 6t70 25t44.5 56t13 98 t-13 98t-44.5 55.5t-69.5 24.5t-104 6v-369zM387 829q64 0 97.5 5.5t56.5 26t30 55t7 98.5t-7 98.5t-30 54.5t-56.5 25.5t-97.5 5.5v-369z" />
<glyph unicode="c" horiz-adv-x="1064" d="M61 729q0 126 5 217t18.5 174.5t37.5 139.5t60.5 102t89.5 72t122 39.5t161 13.5q230 0 339.5 -135.5t109.5 -372.5h-357q0 53 -4.5 90.5t-15.5 69.5t-33 47.5t-55 15.5q-27 0 -44.5 -7t-31.5 -28t-22 -52t-13 -87.5t-6.5 -125t-1.5 -173.5q0 -108 1.5 -176.5t6.5 -125 t12 -86t21.5 -49.5t31.5 -26t44 -6q63 0 86.5 56t23.5 167h357q0 -237 -109.5 -372.5t-339.5 -135.5q-82 0 -145.5 8.5t-114 29.5t-86.5 49.5t-63 76t-43 100.5t-25.5 131.5t-13 161.5t-3.5 197z" />
<glyph unicode="d" horiz-adv-x="1005" d="M61 0v1462h388q91 0 158.5 -11.5t121.5 -35t90 -66.5t61 -97.5t38.5 -138t19.5 -179t6 -227.5v49q0 -155 -7.5 -261t-28.5 -195.5t-55 -143t-91 -90.5t-132 -51.5t-181 -14.5h-388zM387 264q43 0 67.5 1.5t52.5 9t41 19.5t28.5 38t21.5 59t11.5 88t7 119.5t1.5 157.5v-49 q0 74 -1 129t-4.5 104t-6.5 82.5t-12 62.5t-16.5 46t-23.5 31t-29 20t-37.5 10.5t-45 5t-55.5 0.5v-934z" />
<glyph unicode="e" horiz-adv-x="802" d="M61 0v1462h680v-284h-354v-289h252v-285h-252v-319h354v-285h-680z" />
<glyph unicode="f" horiz-adv-x="802" d="M61 0v1462h680v-284h-354v-299h252v-285h-252v-594h-326z" />
<glyph unicode="g" horiz-adv-x="1064" d="M61 729q0 126 5 217t18.5 174.5t37.5 139.5t60.5 102t89.5 72t122 39.5t161 13.5q230 0 339.5 -135.5t109.5 -372.5h-357q0 53 -4.5 90.5t-15.5 69.5t-33 47.5t-55 15.5q-27 0 -44.5 -7t-31.5 -28t-22 -52t-13 -87.5t-6.5 -125t-1.5 -173.5q0 -108 1.5 -176.5t6.5 -125 t12 -86t21.5 -49.5t31.5 -26t44 -6q61 0 85.5 52.5t24.5 154.5v63h-117v265h474v-795h-105l-27 96q-118 -121 -317 -121q-82 0 -145.5 8.5t-114 29.5t-86.5 49.5t-63 76t-43 100.5t-25.5 131.5t-13 161.5t-3.5 197z" />
<glyph unicode="h" horiz-adv-x="993" d="M61 0v1462h326v-604h219v604h326v-1462h-326v573h-219v-573h-326z" />
<glyph unicode="i" horiz-adv-x="448" d="M61 0v1462h326v-1462h-326z" />
<glyph unicode="j" horiz-adv-x="974" d="M61 502h359q0 -101 11 -154.5t30 -70.5t53 -17q16 0 26 6.5t20 32.5t15.5 75.5t9 137.5t3.5 217v733h325v-733q0 -164 -3.5 -261t-17.5 -193t-39 -144.5t-70.5 -88.5t-110 -53.5t-158.5 -13.5q-93 0 -163 13t-120.5 42.5t-83 70.5t-52 102.5t-27 132t-7.5 166.5z" />
<glyph unicode="k" horiz-adv-x="1083" d="M61 0v1462h326v-639l242 637h393l-381 -731l381 -729h-393l-242 641v-641h-326z" />
<glyph unicode="l" horiz-adv-x="782" d="M61 0v1462h326v-1177h334v-285h-660z" />
<glyph unicode="m" horiz-adv-x="1193" d="M61 0v1462h347l190 -766l188 766h347v-1462h-326v659l-107 -659h-202l-111 659v-659h-326z" />
<glyph unicode="n" horiz-adv-x="1110" d="M61 0v1462h324l338 -764v764h326v-1462h-326l-336 723v-723h-326z" />
<glyph unicode="o" d="M61 729q0 88 1.5 151t5.5 131.5t12 116t21 97.5t32 83t45 65t60.5 51t78.5 34.5t98 22t120 6.5t120 -6.5t98 -22t78 -34.5t60.5 -51t45 -65t31.5 -83t21 -97t12 -116t5.5 -132t1.5 -151q0 -91 -1.5 -155.5t-5.5 -134t-12 -116.5t-21 -97t-31.5 -81.5t-45 -62.5t-60.5 -49 t-78 -32t-98 -20t-120 -6t-120 6t-98 20t-78 32t-60.5 49t-45.5 62.5t-32 81.5t-21 97t-12 116.5t-5.5 134t-1.5 155.5zM420 729q0 -109 1.5 -176.5t6 -125t11.5 -86t21 -49t31 -26.5t44 -6t44 5.5t30.5 26.5t20.5 49.5t12 86.5t6 124.5t1 176.5q0 107 -1 173.5t-6 125 t-12 88t-20.5 51.5t-30.5 28.5t-44 6.5t-44 -6.5t-31 -28.5t-21 -52t-11.5 -88t-6 -124.5t-1.5 -173.5z" />
<glyph unicode="p" horiz-adv-x="964" d="M61 0v1462h326q278 0 397 -126t119 -382q0 -241 -119.5 -363t-396.5 -122v-469h-326zM387 727q115 0 153 48.5t38 176.5q0 131 -39 188.5t-152 57.5v-471z" />
<glyph unicode="q" horiz-adv-x="1114" d="M61 729q0 108 3 186t12 156t25 132t42 104t62.5 81t87 55t115 34t147.5 10q74 0 133.5 -9t107.5 -25t84.5 -44.5t64 -62t46.5 -83t31 -101t19 -123.5t9.5 -143.5t2.5 -166.5q0 -111 -3.5 -191.5t-13.5 -160.5t-27.5 -134.5t-46 -104t-69 -81t-96 -52.5t-127.5 -30 q54 -71 145 -71q59 0 133 18q0 -235 -2 -235q-104 -19 -176 -19q-143 0 -226 81.5t-83 223.5q-67 6 -119 20.5t-93 40.5t-70.5 58t-50.5 81t-34 101t-20.5 127t-10 150t-2.5 178zM420 729q0 -111 1.5 -178t6.5 -128t13.5 -91t24 -53t36.5 -30t53 -7t53.5 7.5t37.5 32 t24.5 55t13.5 91.5t6.5 126.5t1.5 174.5t-1.5 174t-6.5 124t-13.5 88t-24.5 51.5t-37 29t-54 6.5q-32 0 -53 -6.5t-36.5 -29t-24 -51.5t-13.5 -88t-6.5 -124t-1.5 -174z" />
<glyph unicode="r" horiz-adv-x="993" d="M61 0v1462h326q282 0 399 -105.5t117 -340.5q0 -133 -29 -220t-96 -128q59 -46 90 -138.5t35.5 -180.5t10 -194t18.5 -155h-326q-9 42 -10.5 127t-2.5 155.5t-22 147.5t-65 121h-119v-551h-326zM387 768q117 0 154 40.5t37 164.5q0 128 -38 176.5t-153 48.5v-430z" />
<glyph unicode="s" horiz-adv-x="966" d="M61 500h357q0 -64 1 -95t6 -71.5t19 -57t37 -16.5q34 0 46 32.5t12 100.5q0 54 -25.5 98.5t-66 77t-89 64.5t-97.5 70.5t-89.5 85t-66 118t-25.5 160.5q0 117 18.5 193t66 129t128 75.5t205.5 22.5q407 0 407 -508h-356q0 136 -11 179.5t-49 43.5q-35 0 -48 -29t-13 -114 q0 -52 26 -95.5t67 -76t90.5 -65t99.5 -71.5t91 -85.5t67 -117.5t26 -157q0 -59 -3 -101t-13 -88.5t-28 -78t-49 -61.5t-74 -48t-105 -28.5t-142 -10.5q-103 0 -178.5 26.5t-121.5 71t-73.5 113.5t-37 143t-9.5 171z" />
<glyph unicode="t" horiz-adv-x="1034" d="M61 1178v284h912v-284h-293v-1178h-326v1178h-293z" />
<glyph unicode="u" d="M61 649v813h332v-813q0 -86 2 -143t7.5 -105.5t15 -76t26 -47t38 -26.5t53.5 -7q38 0 62 12t40.5 36.5t24.5 75t11 114t3 167.5v813h332v-813q0 -110 -4.5 -193t-16.5 -153t-28.5 -118.5t-45 -86.5t-62 -60.5t-83 -37t-104.5 -20t-129 -5.5q-100 0 -167.5 10t-123.5 38.5 t-88.5 74t-55 123.5t-31 179.5t-8.5 248.5z" />
<glyph unicode="v" horiz-adv-x="1144" d="M61 1462h347l163 -981l166 981h346l-348 -1462h-325z" />
<glyph unicode="w" horiz-adv-x="1656" d="M61 1462h347l122 -882l166 882h265l163 -882l125 882h346l-307 -1462h-325l-136 745l-133 -745h-325z" />
<glyph unicode="x" horiz-adv-x="1165" d="M61 0l338 731l-338 731h367l154 -438l155 438h367l-338 -731l338 -731h-367l-155 436l-154 -436h-367z" />
<glyph unicode="y" horiz-adv-x="1163" d="M61 1462h345l176 -499l176 499h344l-357 -809v-653h-327v653z" />
<glyph unicode="z" horiz-adv-x="983" d="M61 0v285l498 893h-436v284h799v-284l-514 -893h481v-285h-828z" />
<glyph unicode="{" horiz-adv-x="770" d="M102 770v55q140 48 140 389q0 44 3 80.5t14 84t30 85t54 76.5t81.5 65t117.5 42.5t158 17.5v-203q-9 0 -23.5 -1t-51.5 -9.5t-65.5 -24.5t-51.5 -50.5t-23 -82.5v-202q0 -33 -12.5 -79.5t-35 -93.5t-60.5 -81.5t-82 -38.5q44 -4 82 -38.5t60.5 -81.5t35 -93.5t12.5 -79.5 v-203q0 -47 22 -81.5t53.5 -50t63.5 -24t54 -9.5l22 -1v-203q-87 0 -158 16.5t-117.5 42.5t-81.5 64.5t-54 76t-30 85t-14 84t-3 80.5q0 331 -140 387z" />
<glyph unicode="|" horiz-adv-x="438" d="M70 -102v1646h299v-1646h-299z" />
<glyph unicode="}" horiz-adv-x="770" d="M70 -66v203q9 0 23.5 1t51.5 10t65.5 24.5t51.5 50t23 80.5v203q0 33 12.5 79.5t35 93.5t60.5 81.5t82 38.5q-44 4 -82 38.5t-60.5 81.5t-35 93.5t-12.5 79.5v202q0 48 -22 82.5t-53.5 50.5t-63.5 24.5t-54 9.5l-22 1v203q87 -1 158 -17.5t117.5 -42.5t81.5 -65t54 -76.5 t30 -85t14 -84t3 -80.5q0 -341 140 -389v-55q-140 -56 -140 -387q0 -44 -3 -80.5t-14 -84t-30 -85t-54 -76t-81.5 -64.5t-117.5 -42.5t-158 -16.5z" />
<glyph unicode="~" horiz-adv-x="1337" d="M70 834l17 17t47.5 38.5t75.5 48.5t97.5 38t116.5 17q70 0 131.5 -18t100 -40t99 -40t128.5 -18q42 1 86 15.5t76.5 35.5t59 42t40.5 36l14 14l109 -270q-6 -7 -17.5 -17.5t-48.5 -38t-76 -48.5t-97.5 -38t-115.5 -16q-56 0 -105 12t-85.5 29l-73 34t-86.5 29t-108 11 q-42 0 -86 -15t-76.5 -36t-59.5 -42t-41 -36l-14 -15z" />
<glyph horiz-adv-x="0" />
<glyph unicode="&#xa1;" horiz-adv-x="505" d="M70 -266l41 979h284l41 -979h-366zM80 852v346h346v-346h-346z" />
<glyph unicode="&#xa2;" horiz-adv-x="1024" d="M61 729q0 104 3.5 176t13.5 147t30 125t51.5 94t79 71t111.5 42v160h299v-153q314 -68 314 -496h-357q0 112 -18.5 167.5t-73.5 55.5q-64 0 -79 -78.5t-15 -310.5q0 -233 16 -309t82 -76q20 0 34.5 6.5t24 21.5t15.5 32.5t9 45t4 53.5t1 64h357q0 -430 -314 -495v-174 h-299v176q-57 12 -100 34t-73.5 50t-51.5 73t-34 90.5t-19.5 115t-8.5 134t-2 158.5z" />
<glyph unicode="&#xa3;" horiz-adv-x="1050" d="M29 600v164h145v371q0 169 98.5 260.5t268.5 91.5q245 0 346.5 -121.5t101.5 -386.5h-356q0 137 -13.5 180t-60.5 43q-59 0 -59 -67v-371h434v-164h-434v-160q0 -108 -90 -176h579v-264h-915v264q4 2 11 7t24 21.5t30 35t24 49t11 63.5v160h-145z" />
<glyph unicode="&#xa4;" horiz-adv-x="964" d="M70 1055l116 119l144 -144q68 41 153 41q75 0 144 -37l143 146l119 -115l-144 -145q41 -68 41 -154q0 -81 -36 -143l145 -146l-117 -119l-143 144q-68 -41 -154 -41q-74 0 -143 37l-143 -146l-119 115l143 145q-41 68 -41 154q0 79 37 143zM332 766q0 -64 43 -108 t106 -44q65 0 108.5 44t43.5 108t-43.5 108t-106.5 44q-64 0 -107.5 -43.5t-43.5 -108.5z" />
<glyph unicode="&#xa5;" horiz-adv-x="1163" d="M61 1462h345l176 -499l176 499h344l-357 -807h209v-204h-209v-91h209v-204h-209v-156h-327v156h-215v204h215v91h-215v204h213z" />
<glyph unicode="&#xa6;" horiz-adv-x="438" d="M70 -158v787h299v-787h-299zM70 758v786h299v-786h-299z" />
<glyph unicode="&#xa7;" horiz-adv-x="1024" d="M70 168h331q0 -103 35 -138.5t99 -35.5q54 0 81 21t27 69q0 37 -31.5 70.5t-81.5 61.5t-111 57.5t-121.5 64t-110.5 74.5t-81.5 97t-31.5 124q0 166 108 248q-55 49 -83.5 104.5t-28.5 134.5q0 367 432 367q114 0 202 -34.5t142 -95.5t81 -140.5t27 -174.5h-338 q0 103 -31 139t-96 36q-56 0 -82 -24t-26 -81q0 -36 31.5 -67t81.5 -56t111 -51t121.5 -58t110.5 -69.5t81.5 -93.5t31.5 -123q0 -165 -110 -248q114 -96 114 -246q0 -80 -25.5 -146.5t-77 -118.5t-138 -81.5t-201.5 -29.5q-226 0 -334 117t-108 327zM399 633q0 -40 39 -70 t115 -63q72 29 72 94q0 41 -37.5 70t-114.5 65q-74 -27 -74 -96z" />
<glyph unicode="&#xa8;" horiz-adv-x="735" d="M68 1374v236h235v-236h-235zM436 1374v236h236v-236h-236z" />
<glyph unicode="&#xa9;" horiz-adv-x="1687" d="M70 731q0 158 61 301t165 247t247 165t301 61t301 -61t247 -165t165 -247t61 -301t-61 -301t-165 -247t-247 -165t-301 -61t-301 61t-247 165t-165 247t-61 301zM197 731q0 -175 87 -324t236 -236t324 -87t324 87t236 236t87 324t-87 324t-236 236t-324 87t-324 -87 t-236 -236t-87 -324zM485 729q0 -130 16.5 -216t57 -146.5t110 -87t175.5 -27.5q77 0 137 19.5t97.5 51.5t62 77t34 92t9.5 100h-201q0 -87 -28.5 -125.5t-110.5 -38.5q-65 0 -97 25t-45.5 88t-13.5 188t13.5 188t45.5 88t97 25q83 0 111 -38t28 -126h201q0 53 -9.5 100 t-34 92t-62 77t-97.5 51.5t-137 19.5q-106 0 -175.5 -26.5t-110 -87.5t-57 -147t-16.5 -216z" />
<glyph unicode="&#xaa;" horiz-adv-x="600" d="M61 938l160 518h158l160 -518h-158l-19 80h-124l-17 -80h-160zM264 1126h72l-35 166z" />
<glyph unicode="&#xab;" horiz-adv-x="944" d="M66 733l210 623h246l-209 -623l209 -622h-246zM422 733l211 623h246l-209 -623l209 -622h-246z" />
<glyph unicode="&#xac;" horiz-adv-x="1380" d="M70 676v246h1241v-641h-246v395h-995z" />
<glyph unicode="&#xad;" horiz-adv-x="772" d="M61 596v246h650v-246h-650z" />
<glyph unicode="&#xae;" horiz-adv-x="1687" d="M70 731q0 158 61 301t165 247t247 165t301 61t301 -61t247 -165t165 -247t61 -301t-61 -301t-165 -247t-247 -165t-301 -61t-301 61t-247 165t-165 247t-61 301zM197 731q0 -175 87 -324t236 -236t324 -87t324 87t236 236t87 324t-87 324t-236 236t-324 87t-324 -87 t-236 -236t-87 -324zM561 332v876h199q213 0 300 -61t87 -219q0 -88 -44 -147.5t-112 -71.5q47 -52 81.5 -107t49 -89.5t36.5 -95t32 -85.5h-219q-7 21 -27.5 96t-44.5 130.5t-65 113.5h-82v-340h-191zM752 809q123 0 161.5 25.5t38.5 91.5q0 45 -14 67.5t-57 34.5t-129 12 v-231z" />
<glyph unicode="&#xaf;" horiz-adv-x="722" d="M66 1378v205h591v-205h-591z" />
<glyph unicode="&#xb0;" horiz-adv-x="706" d="M61 1243q0 119 69.5 190.5t223.5 71.5q153 0 222 -71.5t69 -190.5t-69 -191.5t-222 -72.5q-154 0 -223.5 72.5t-69.5 191.5zM305 1243q0 -59 10 -82.5t39 -23.5q28 0 38.5 24t10.5 82q0 56 -10.5 80.5t-38.5 24.5q-29 0 -39 -24t-10 -81z" />
<glyph unicode="&#xb1;" horiz-adv-x="890" d="M70 903v246h252v252h245v-252h254v-246h-254v-254h-245v254h-252zM90 174v246h711v-246h-711z" />
<glyph unicode="&#xb2;" horiz-adv-x="571" d="M61 731q0 97 25 168.5t60.5 110.5t71 69t60.5 64.5t25 77.5q0 55 -27 55q-16 0 -24 -24.5t-8 -57.5h-183q0 129 52.5 198.5t158.5 69.5q119 0 178.5 -56t59.5 -157q0 -57 -20 -105t-48 -79.5t-56.5 -58.5t-48.5 -53.5t-20 -51.5h179v-170h-435z" />
<glyph unicode="&#xb3;" horiz-adv-x="598" d="M61 821l123 109q1 -3 3.5 -7.5t11 -16.5t18 -21.5t25 -17t32.5 -7.5q66 0 66 76q0 27 -14 48.5t-43 21.5h-52v127h52q29 0 43 22t14 47q0 76 -66 76q-26 0 -48 -17t-31 -34l-9 -17l-125 109q2 6 7 15.5t24 33.5t41.5 43t62.5 34t85 15q125 0 190.5 -64t65.5 -157 q0 -115 -70 -170q70 -49 70 -166q0 -95 -65.5 -160t-190.5 -65q-45 0 -84.5 14.5t-63.5 36t-41 42.5t-24 35z" />
<glyph unicode="&#xb4;" horiz-adv-x="706" d="M61 1380l213 242h383l-290 -242h-306z" />
<glyph unicode="&#xb5;" d="M66 -446v1407h325v-314q0 -104 3 -167.5t11 -114t24.5 -75t40.5 -36.5t62 -12q32 0 53.5 7t38 26.5t26 47t15 76t7.5 105.5t2 143v314h330v-961h-203l-41 68q-31 -50 -84.5 -72.5t-143.5 -22.5q-80 0 -141 9v-428h-325z" />
<glyph unicode="&#xb6;" horiz-adv-x="1015" d="M61 1040q0 108 29 191.5t79 132.5t111 73.5t132 24.5h338v-1728h-340v889q-70 0 -131 24t-110.5 72t-78.5 130.5t-29 190.5zM811 -266v1726h143v-1726h-143z" />
<glyph unicode="&#xb7;" horiz-adv-x="409" d="M70 639v270h270v-270h-270z" />
<glyph unicode="&#xb8;" horiz-adv-x="460" d="M33 -401l37 118q76 -34 137 -34q40 0 59 12t19 43t-18.5 45t-59.5 14q-16 0 -36 -2t-32 -4l-12 -2l43 195h121l-19 -80q65 0 108.5 -39.5t43.5 -126.5q0 -88 -56 -135t-161 -47q-37 0 -80.5 11t-68.5 21z" />
<glyph unicode="&#xb9;" horiz-adv-x="493" d="M61 1098v200q44 0 81.5 41t53.5 82l15 41h221v-731h-223v438q-2 -3 -6.5 -7.5t-18.5 -17t-30 -22t-41.5 -17t-51.5 -7.5z" />
<glyph unicode="&#xba;" horiz-adv-x="657" d="M61 1196q0 74 22 127.5t61 83t84.5 42.5t99.5 13t99.5 -13t84.5 -42.5t61.5 -83t22.5 -127.5t-22 -127.5t-61 -83t-84 -42.5t-99 -13t-99.5 13.5t-85 42.5t-62 82.5t-22.5 127.5zM266 1196q0 -81 11 -107t53 -26q41 0 51 25.5t10 107.5t-10.5 107.5t-52.5 25.5 q-41 0 -51.5 -26t-10.5 -107z" />
<glyph unicode="&#xbb;" horiz-adv-x="944" d="M66 111l208 622l-208 623h245l211 -623l-211 -622h-245zM422 111l209 622l-209 623h246l211 -623l-211 -622h-246z" />
<glyph unicode="&#xbc;" horiz-adv-x="1386" d="M61 1098v200q44 0 81.5 41t53.5 82l15 41h221v-731h-223v438q-2 -3 -6.5 -7.5t-18.5 -17t-30 -22t-41.5 -17t-51.5 -7.5zM342 0h223l430 1462h-223zM780 158v155l238 418h254v-418h53v-155h-53v-158h-207v158h-285zM977 313h88v174z" />
<glyph unicode="&#xbd;" horiz-adv-x="1382" d="M61 731q0 97 25 168.5t60.5 110.5t71 69t60.5 64.5t25 77.5q0 55 -27 55q-16 0 -24 -24.5t-8 -57.5h-183q0 129 52.5 198.5t158.5 69.5q119 0 178.5 -56t59.5 -157q0 -57 -20 -105t-48 -79.5t-56.5 -58.5t-48.5 -53.5t-20 -51.5h179v-170h-435zM338 0l430 1462h223 l-430 -1462h-223zM776 158v155l238 418h254v-418h53v-155h-53v-158h-207v158h-285zM973 313h88v174z" />
<glyph unicode="&#xbe;" horiz-adv-x="1382" d="M61 821l123 109q1 -3 3.5 -7.5t11 -16.5t18 -21.5t25 -17t32.5 -7.5q66 0 66 76q0 27 -14 48.5t-43 21.5h-52v127h52q29 0 43 22t14 47q0 76 -66 76q-26 0 -48 -17t-31 -34l-9 -17l-125 109q2 6 7 15.5t24 33.5t41.5 43t62.5 34t85 15q125 0 190.5 -64t65.5 -157 q0 -115 -70 -170q70 -49 70 -166q0 -95 -65.5 -160t-190.5 -65q-45 0 -84.5 14.5t-63.5 36t-41 42.5t-24 35zM358 0l430 1462h224l-430 -1462h-224zM776 158v155l238 418h254v-418h53v-155h-53v-158h-207v158h-285zM973 313h88v174z" />
<glyph unicode="&#xbf;" horiz-adv-x="1034" d="M70 63q0 63 18.5 112.5t47.5 81t65 58t71.5 50.5t64.5 51t47.5 67.5t18.5 91.5v111h347v-111q0 -79 -17 -141t-44.5 -100.5t-61 -68t-67 -50.5t-61 -40.5t-44.5 -45t-17 -57.5q0 -102 15 -132t75 -30q20 0 34 6.5t22.5 23t13.5 31.5t7 47t2.5 52t0.5 63h357 q0 -508 -437 -508q-137 0 -226.5 25t-140.5 82t-71 135t-20 196zM406 852v346h344v-346h-344z" />
<glyph unicode="&#xc0;" horiz-adv-x="1103" d="M61 0l328 1462h326l327 -1462h-325l-37 223h-256l-37 -223h-326zM115 1790h383l213 -242h-305zM467 487h168l-84 514z" />
<glyph unicode="&#xc1;" horiz-adv-x="1103" d="M61 0l328 1462h326l327 -1462h-325l-37 223h-256l-37 -223h-326zM401 1548l213 242h383l-290 -242h-306zM467 487h168l-84 514z" />
<glyph unicode="&#xc2;" horiz-adv-x="1103" d="M61 0l328 1462h326l327 -1462h-325l-37 223h-256l-37 -223h-326zM129 1546l311 242h230l311 -242h-342l-84 92l-84 -92h-342zM467 487h168l-84 514z" />
<glyph unicode="&#xc3;" horiz-adv-x="1103" d="M61 0l328 1462h326l327 -1462h-325l-37 223h-256l-37 -223h-326zM180 1548q0 149 40 205.5t149 56.5q58 -1 106 -13.5t73.5 -27.5t55 -27.5t55.5 -12.5q28 0 41 17t13 58h184q0 -149 -39.5 -204.5t-148.5 -55.5q-58 0 -106 13t-73.5 28t-54.5 28t-53 13q-30 0 -43.5 -18 t-13.5 -60h-185zM467 487h168l-84 514z" />
<glyph unicode="&#xc4;" horiz-adv-x="1103" d="M61 0l328 1462h326l327 -1462h-325l-37 223h-256l-37 -223h-326zM250 1542v236h235v-236h-235zM467 487h168l-84 514zM618 1542v236h236v-236h-236z" />
<glyph unicode="&#xc5;" horiz-adv-x="1103" d="M61 0l322 1434q-59 53 -59 155q0 110 65 160.5t164 50.5t165 -50.5t66 -160.5q0 -104 -63 -157l321 -1432h-325l-37 223h-256l-37 -223h-326zM467 487h168l-84 514zM500 1589q0 -55 9 -74.5t44 -19.5q36 0 45.5 19.5t9.5 74.5q0 57 -9.5 77t-45.5 20q-35 0 -44 -20 t-9 -77z" />
<glyph unicode="&#xc6;" horiz-adv-x="1363" d="M51 0l410 1462h842v-284h-355v-289h252v-285h-252v-319h355v-285h-633v244h-232l-61 -244h-326zM481 487h191v693z" />
<glyph unicode="&#xc7;" horiz-adv-x="1064" d="M61 729q0 126 5 217t18.5 174.5t37.5 139.5t60.5 102t89.5 72t122 39.5t161 13.5q230 0 339.5 -135.5t109.5 -372.5h-357q0 53 -4.5 90.5t-15.5 69.5t-33 47.5t-55 15.5q-27 0 -44.5 -7t-31.5 -28t-22 -52t-13 -87.5t-6.5 -125t-1.5 -173.5q0 -108 1.5 -176.5t6.5 -125 t12 -86t21.5 -49.5t31.5 -26t44 -6q63 0 86.5 56t23.5 167h357q0 -222 -96.5 -355.5t-297.5 -150.5l-16 -73q65 0 108 -39.5t43 -126.5q0 -88 -56 -135t-161 -47q-37 0 -80.5 11t-68.5 21l-25 11l37 118q76 -34 137 -34q40 0 59 12t19 43t-18.5 45t-59.5 14q-16 0 -35.5 -2 t-31.5 -4l-12 -2l40 188q-71 3 -125.5 14.5t-98.5 34.5t-75.5 53t-54.5 77.5t-37 100t-22.5 128.5t-11.5 156t-3 188z" />
<glyph unicode="&#xc8;" horiz-adv-x="802" d="M0 1790h383l213 -242h-305zM61 0v1462h680v-284h-354v-289h252v-285h-252v-319h354v-285h-680z" />
<glyph unicode="&#xc9;" horiz-adv-x="802" d="M61 0v1462h680v-284h-354v-289h252v-285h-252v-319h354v-285h-680zM225 1548l213 242h383l-291 -242h-305z" />
<glyph unicode="&#xca;" horiz-adv-x="802" d="M-25 1546l312 242h229l311 -242h-342l-84 92l-84 -92h-342zM61 0v1462h680v-284h-354v-289h252v-285h-252v-319h354v-285h-680z" />
<glyph unicode="&#xcb;" horiz-adv-x="802" d="M61 0v1462h680v-284h-354v-289h252v-285h-252v-319h354v-285h-680zM98 1542v236h236v-236h-236zM467 1542v236h235v-236h-235z" />
<glyph unicode="&#xcc;" horiz-adv-x="448" d="M-217 1790h383l213 -242h-305zM61 0v1462h326v-1462h-326z" />
<glyph unicode="&#xcd;" horiz-adv-x="448" d="M61 0v1462h326v-1462h-326zM70 1548l213 242h383l-291 -242h-305z" />
<glyph unicode="&#xce;" horiz-adv-x="448" d="M-201 1546l312 242h229l311 -242h-342l-84 92l-84 -92h-342zM61 0v1462h326v-1462h-326z" />
<glyph unicode="&#xcf;" horiz-adv-x="448" d="M-78 1542v236h236v-236h-236zM61 0v1462h326v-1462h-326zM291 1542v236h235v-236h-235z" />
<glyph unicode="&#xd0;" horiz-adv-x="1097" d="M35 596v246h121v620h387q106 0 180.5 -14t131 -51t90.5 -90t55 -141t28.5 -194t7.5 -259q0 -141 -8 -240.5t-29.5 -183t-56.5 -135.5t-91 -88t-130.5 -51t-177.5 -15h-387v596h-121zM481 264q40 0 65 2t51 9t41 19t30 35.5t22 54.5t13 78.5t8 106t2 138.5 q0 93 -1.5 157.5t-7.5 119t-11.5 87.5t-21 59t-29 38t-41.5 19.5t-52 9t-68 1.5v-356h142v-246h-142v-332z" />
<glyph unicode="&#xd1;" horiz-adv-x="1110" d="M61 0v1462h324l338 -764v764h326v-1462h-326l-336 723v-723h-326zM197 1548q0 149 39.5 205.5t148.5 56.5q58 -1 106.5 -13.5t74 -27.5t55 -27.5t55.5 -12.5q28 0 40.5 17t12.5 58h184q0 -149 -39.5 -204.5t-148.5 -55.5q-58 0 -106 13t-73.5 28t-54.5 28t-53 13 q-30 0 -43.5 -18t-13.5 -60h-184z" />
<glyph unicode="&#xd2;" d="M61 729q0 -91 1.5 -155.5t5.5 -134t12 -116.5t21 -97t32 -81.5t45.5 -62.5t60.5 -49t78 -32t98 -20t120 -6t120 6t98 20t78 32t60.5 49t45 62.5t31.5 81.5t21 97t12 116.5t5.5 134t1.5 155.5q0 88 -1.5 151t-5.5 132t-12 116t-21 97t-31.5 83t-45 65t-60.5 51t-78 34.5 t-98 22t-120 6.5t-120 -6.5t-98 -22t-78.5 -34.5t-60.5 -51t-45 -65t-32 -83t-21 -97.5t-12 -116t-5.5 -131.5t-1.5 -151zM113 1790h383l213 -242h-306zM420 729q0 107 1.5 173.5t6 124.5t11.5 88t21 52t31 28.5t44 6.5t44 -6.5t30.5 -28.5t20.5 -51.5t12 -88t6 -125 t1 -173.5q0 -110 -1 -176.5t-6 -124.5t-12 -86.5t-20.5 -49.5t-30.5 -26.5t-44 -5.5t-44 6t-31 26.5t-21 49t-11.5 86t-6 125t-1.5 176.5z" />
<glyph unicode="&#xd3;" d="M61 729q0 88 1.5 151t5.5 131.5t12 116t21 97.5t32 83t45 65t60.5 51t78.5 34.5t98 22t120 6.5t120 -6.5t98 -22t78 -34.5t60.5 -51t45 -65t31.5 -83t21 -97t12 -116t5.5 -132t1.5 -151q0 -91 -1.5 -155.5t-5.5 -134t-12 -116.5t-21 -97t-31.5 -81.5t-45 -62.5t-60.5 -49 t-78 -32t-98 -20t-120 -6t-120 6t-98 20t-78 32t-60.5 49t-45.5 62.5t-32 81.5t-21 97t-12 116.5t-5.5 134t-1.5 155.5zM358 1548l213 242h383l-290 -242h-306zM420 729q0 -109 1.5 -176.5t6 -125t11.5 -86t21 -49t31 -26.5t44 -6t44 5.5t30.5 26.5t20.5 49.5t12 86.5 t6 124.5t1 176.5q0 107 -1 173.5t-6 125t-12 88t-20.5 51.5t-30.5 28.5t-44 6.5t-44 -6.5t-31 -28.5t-21 -52t-11.5 -88t-6 -124.5t-1.5 -173.5z" />
<glyph unicode="&#xd4;" d="M61 729q0 -91 1.5 -155.5t5.5 -134t12 -116.5t21 -97t32 -81.5t45.5 -62.5t60.5 -49t78 -32t98 -20t120 -6t120 6t98 20t78 32t60.5 49t45 62.5t31.5 81.5t21 97t12 116.5t5.5 134t1.5 155.5q0 88 -1.5 151t-5.5 132t-12 116t-21 97t-31.5 83t-45 65t-60.5 51t-78 34.5 t-98 22t-120 6.5t-120 -6.5t-98 -22t-78.5 -34.5t-60.5 -51t-45 -65t-32 -83t-21 -97.5t-12 -116t-5.5 -131.5t-1.5 -151zM109 1546l311 242h229l312 -242h-343l-83 92l-84 -92h-342zM420 729q0 107 1.5 173.5t6 124.5t11.5 88t21 52t31 28.5t44 6.5t44 -6.5t30.5 -28.5 t20.5 -51.5t12 -88t6 -125t1 -173.5q0 -110 -1 -176.5t-6 -124.5t-12 -86.5t-20.5 -49.5t-30.5 -26.5t-44 -5.5t-44 6t-31 26.5t-21 49t-11.5 86t-6 125t-1.5 176.5z" />
<glyph unicode="&#xd5;" d="M61 729q0 88 1.5 151t5.5 131.5t12 116t21 97.5t32 83t45 65t60.5 51t78.5 34.5t98 22t120 6.5t120 -6.5t98 -22t78 -34.5t60.5 -51t45 -65t31.5 -83t21 -97t12 -116t5.5 -132t1.5 -151q0 -91 -1.5 -155.5t-5.5 -134t-12 -116.5t-21 -97t-31.5 -81.5t-45 -62.5t-60.5 -49 t-78 -32t-98 -20t-120 -6t-120 6t-98 20t-78 32t-60.5 49t-45.5 62.5t-32 81.5t-21 97t-12 116.5t-5.5 134t-1.5 155.5zM176 1548q0 149 40 205.5t149 56.5q58 -1 106 -13.5t73.5 -27.5t55 -27.5t55.5 -12.5q28 0 41 17t13 58h184q0 -149 -39.5 -204.5t-148.5 -55.5 q-58 0 -106 13t-73.5 28t-54.5 28t-53 13q-30 0 -44 -18t-14 -60h-184zM420 729q0 -109 1.5 -176.5t6 -125t11.5 -86t21 -49t31 -26.5t44 -6t44 5.5t30.5 26.5t20.5 49.5t12 86.5t6 124.5t1 176.5q0 107 -1 173.5t-6 125t-12 88t-20.5 51.5t-30.5 28.5t-44 6.5t-44 -6.5 t-31 -28.5t-21 -52t-11.5 -88t-6 -124.5t-1.5 -173.5z" />
<glyph unicode="&#xd6;" d="M61 729q0 -91 1.5 -155.5t5.5 -134t12 -116.5t21 -97t32 -81.5t45.5 -62.5t60.5 -49t78 -32t98 -20t120 -6t120 6t98 20t78 32t60.5 49t45 62.5t31.5 81.5t21 97t12 116.5t5.5 134t1.5 155.5q0 88 -1.5 151t-5.5 132t-12 116t-21 97t-31.5 83t-45 65t-60.5 51t-78 34.5 t-98 22t-120 6.5t-120 -6.5t-98 -22t-78.5 -34.5t-60.5 -51t-45 -65t-32 -83t-21 -97.5t-12 -116t-5.5 -131.5t-1.5 -151zM231 1542v236h236v-236h-236zM420 729q0 107 1.5 173.5t6 124.5t11.5 88t21 52t31 28.5t44 6.5t44 -6.5t30.5 -28.5t20.5 -51.5t12 -88t6 -125 t1 -173.5q0 -110 -1 -176.5t-6 -124.5t-12 -86.5t-20.5 -49.5t-30.5 -26.5t-44 -5.5t-44 6t-31 26.5t-21 49t-11.5 86t-6 125t-1.5 176.5zM600 1542v236h236v-236h-236z" />
<glyph unicode="&#xd7;" horiz-adv-x="931" d="M70 496l223 221l-223 223l174 174l223 -223l221 223l174 -174l-221 -223l221 -221l-174 -174l-221 223l-223 -223z" />
<glyph unicode="&#xd8;" horiz-adv-x="1101" d="M-20 -43l143 252q-27 83 -36 204t-9 316q0 88 1.5 151t5.5 132t12 116t21 97t31.5 83t45 65t60.5 51t78 34.5t98 22t120 6.5q170 0 268 -49l39 67h264l-145 -256q28 -85 37.5 -206t9.5 -314q0 -91 -1.5 -155.5t-5.5 -134t-12 -116.5t-21 -97t-31.5 -81.5t-45 -62.5 t-60.5 -49t-78 -32t-98 -20t-120 -6q-173 0 -272 45l-35 -63h-264zM436 729q0 -109 1.5 -176.5t6 -125t11.5 -86t21 -49t31 -26.5t44 -6t44 6t31 26.5t21 49t11.5 86t6 125t1.5 176.5q0 107 -1.5 173.5t-6 124.5t-11.5 88t-21 52t-31 28.5t-44 6.5t-44 -6.5t-31 -28.5 t-21 -52t-11.5 -88t-6 -124.5t-1.5 -173.5z" />
<glyph unicode="&#xd9;" d="M61 649q0 -147 8.5 -248.5t31 -179.5t55 -123.5t88.5 -74t123.5 -38.5t167.5 -10q74 0 129 5.5t104.5 20t83 37t62 60.5t45 86.5t28.5 118.5t16.5 153t4.5 193v813h-332v-813q0 -104 -3 -167.5t-11 -114t-24.5 -75t-40.5 -36.5t-62 -12q-32 0 -53.5 7t-38 26.5t-26 47 t-15 76t-7.5 105.5t-2 143v813h-332v-813zM113 1790h383l213 -242h-306z" />
<glyph unicode="&#xda;" d="M61 649v813h332v-813q0 -86 2 -143t7.5 -105.5t15 -76t26 -47t38 -26.5t53.5 -7q38 0 62 12t40.5 36.5t24.5 75t11 114t3 167.5v813h332v-813q0 -110 -4.5 -193t-16.5 -153t-28.5 -118.5t-45 -86.5t-62 -60.5t-83 -37t-104.5 -20t-129 -5.5q-100 0 -167.5 10t-123.5 38.5 t-88.5 74t-55 123.5t-31 179.5t-8.5 248.5zM365 1548l213 242h383l-291 -242h-305z" />
<glyph unicode="&#xdb;" d="M61 649q0 -147 8.5 -248.5t31 -179.5t55 -123.5t88.5 -74t123.5 -38.5t167.5 -10q74 0 129 5.5t104.5 20t83 37t62 60.5t45 86.5t28.5 118.5t16.5 153t4.5 193v813h-332v-813q0 -104 -3 -167.5t-11 -114t-24.5 -75t-40.5 -36.5t-62 -12q-32 0 -53.5 7t-38 26.5t-26 47 t-15 76t-7.5 105.5t-2 143v813h-332v-813zM109 1546l311 242h229l312 -242h-343l-83 92l-84 -92h-342z" />
<glyph unicode="&#xdc;" d="M61 649q0 -147 8.5 -248.5t31 -179.5t55 -123.5t88.5 -74t123.5 -38.5t167.5 -10q74 0 129 5.5t104.5 20t83 37t62 60.5t45 86.5t28.5 118.5t16.5 153t4.5 193v813h-332v-813q0 -104 -3 -167.5t-11 -114t-24.5 -75t-40.5 -36.5t-62 -12q-32 0 -53.5 7t-38 26.5t-26 47 t-15 76t-7.5 105.5t-2 143v813h-332v-813zM231 1542v236h236v-236h-236zM600 1542v236h236v-236h-236z" />
<glyph unicode="&#xdd;" horiz-adv-x="1163" d="M61 1462h345l176 -499l176 499h344l-357 -809v-653h-327v653zM426 1548l213 242h383l-291 -242h-305z" />
<glyph unicode="&#xde;" horiz-adv-x="966" d="M70 0v1462h299v-186h131q220 0 312.5 -101.5t92.5 -328.5q0 -230 -90.5 -330.5t-310.5 -101.5h-135v-414h-299zM369 672h102q89 0 125.5 41.5t36.5 132.5q0 92 -37 132t-125 40h-102v-346z" />
<glyph unicode="&#xdf;" horiz-adv-x="1165" d="M66 0v1087q0 217 102.5 308.5t337.5 91.5q214 0 315 -101t101 -305q0 -76 -15.5 -131.5t-31 -97t-15.5 -82.5q0 -23 14.5 -43t38 -36.5t51.5 -34.5t56 -42t51.5 -53.5t38 -74.5t14.5 -99q0 -186 -100 -286.5t-289 -100.5q-54 0 -113 12t-92 24l-32 13l65 250 q84 -43 172 -43q56 0 77.5 32t21.5 99q0 31 -16.5 57.5t-43.5 46t-59 39t-64 41.5t-59 48t-43.5 65t-16.5 86q0 44 16 87t35.5 72.5t35.5 70.5t16 81q0 86 -28.5 121t-94.5 35q-60 0 -90.5 -36t-30.5 -120v-1081h-325z" />
<glyph unicode="&#xe0;" horiz-adv-x="1103" d="M61 0l328 1462h326l327 -1462h-325l-37 223h-256l-37 -223h-326zM115 1790h383l213 -242h-305zM467 487h168l-84 514z" />
<glyph unicode="&#xe1;" horiz-adv-x="1103" d="M61 0l328 1462h326l327 -1462h-325l-37 223h-256l-37 -223h-326zM401 1548l213 242h383l-290 -242h-306zM467 487h168l-84 514z" />
<glyph unicode="&#xe2;" horiz-adv-x="1103" d="M61 0l328 1462h326l327 -1462h-325l-37 223h-256l-37 -223h-326zM129 1546l311 242h230l311 -242h-342l-84 92l-84 -92h-342zM467 487h168l-84 514z" />
<glyph unicode="&#xe3;" horiz-adv-x="1103" d="M61 0l328 1462h326l327 -1462h-325l-37 223h-256l-37 -223h-326zM180 1548q0 149 40 205.5t149 56.5q58 -1 106 -13.5t73.5 -27.5t55 -27.5t55.5 -12.5q28 0 41 17t13 58h184q0 -149 -39.5 -204.5t-148.5 -55.5q-58 0 -106 13t-73.5 28t-54.5 28t-53 13q-30 0 -43.5 -18 t-13.5 -60h-185zM467 487h168l-84 514z" />
<glyph unicode="&#xe4;" horiz-adv-x="1103" d="M61 0l328 1462h326l327 -1462h-325l-37 223h-256l-37 -223h-326zM250 1542v236h235v-236h-235zM467 487h168l-84 514zM618 1542v236h236v-236h-236z" />
<glyph unicode="&#xe5;" horiz-adv-x="1103" d="M61 0l322 1434q-59 53 -59 155q0 110 65 160.5t164 50.5t165 -50.5t66 -160.5q0 -104 -63 -157l321 -1432h-325l-37 223h-256l-37 -223h-326zM467 487h168l-84 514zM500 1589q0 -55 9 -74.5t44 -19.5q36 0 45.5 19.5t9.5 74.5q0 57 -9.5 77t-45.5 20q-35 0 -44 -20 t-9 -77z" />
<glyph unicode="&#xe6;" horiz-adv-x="1363" d="M51 0l410 1462h842v-284h-355v-289h252v-285h-252v-319h355v-285h-633v244h-232l-61 -244h-326zM481 487h191v693z" />
<glyph unicode="&#xe7;" horiz-adv-x="1064" d="M61 729q0 126 5 217t18.5 174.5t37.5 139.5t60.5 102t89.5 72t122 39.5t161 13.5q230 0 339.5 -135.5t109.5 -372.5h-357q0 53 -4.5 90.5t-15.5 69.5t-33 47.5t-55 15.5q-27 0 -44.5 -7t-31.5 -28t-22 -52t-13 -87.5t-6.5 -125t-1.5 -173.5q0 -108 1.5 -176.5t6.5 -125 t12 -86t21.5 -49.5t31.5 -26t44 -6q63 0 86.5 56t23.5 167h357q0 -224 -97 -356.5t-301 -149.5l-16 -73q65 0 108 -39.5t43 -126.5q0 -88 -56 -135t-161 -47q-37 0 -80.5 11t-68.5 21l-25 11l37 118q76 -34 137 -34q40 0 59 12t19 43t-18.5 45t-59.5 14q-16 0 -36 -2t-32 -4 l-12 -2l41 188q-70 3 -124.5 14.5t-98 35t-74.5 53.5t-54 77.5t-37 100t-22 128.5t-11 155.5t-3 187.5z" />
<glyph unicode="&#xe8;" horiz-adv-x="802" d="M0 1790h383l213 -242h-305zM61 0v1462h680v-284h-354v-289h252v-285h-252v-319h354v-285h-680z" />
<glyph unicode="&#xe9;" horiz-adv-x="802" d="M61 0v1462h680v-284h-354v-289h252v-285h-252v-319h354v-285h-680zM225 1548l213 242h383l-291 -242h-305z" />
<glyph unicode="&#xea;" horiz-adv-x="802" d="M-25 1546l312 242h229l311 -242h-342l-84 92l-84 -92h-342zM61 0v1462h680v-284h-354v-289h252v-285h-252v-319h354v-285h-680z" />
<glyph unicode="&#xeb;" horiz-adv-x="802" d="M61 0v1462h680v-284h-354v-289h252v-285h-252v-319h354v-285h-680zM98 1542v236h236v-236h-236zM467 1542v236h235v-236h-235z" />
<glyph unicode="&#xec;" horiz-adv-x="448" d="M-217 1790h383l213 -242h-305zM61 0v1462h326v-1462h-326z" />
<glyph unicode="&#xed;" horiz-adv-x="448" d="M61 0v1462h326v-1462h-326zM70 1548l213 242h383l-291 -242h-305z" />
<glyph unicode="&#xee;" horiz-adv-x="448" d="M-201 1546l312 242h229l311 -242h-342l-84 92l-84 -92h-342zM61 0v1462h326v-1462h-326z" />
<glyph unicode="&#xef;" horiz-adv-x="448" d="M-78 1542v236h236v-236h-236zM61 0v1462h326v-1462h-326zM291 1542v236h235v-236h-235z" />
<glyph unicode="&#xf0;" horiz-adv-x="1097" d="M35 596v246h121v620h387q106 0 180.5 -14t131 -51t90.5 -90t55 -141t28.5 -194t7.5 -259q0 -141 -8 -240.5t-29.5 -183t-56.5 -135.5t-91 -88t-130.5 -51t-177.5 -15h-387v596h-121zM481 264q40 0 65 2t51 9t41 19t30 35.5t22 54.5t13 78.5t8 106t2 138.5 q0 93 -1.5 157.5t-7.5 119t-11.5 87.5t-21 59t-29 38t-41.5 19.5t-52 9t-68 1.5v-356h142v-246h-142v-332z" />
<glyph unicode="&#xf1;" horiz-adv-x="1110" d="M61 0v1462h324l338 -764v764h326v-1462h-326l-336 723v-723h-326zM197 1548q0 149 39.5 205.5t148.5 56.5q58 -1 106.5 -13.5t74 -27.5t55 -27.5t55.5 -12.5q28 0 40.5 17t12.5 58h184q0 -149 -39.5 -204.5t-148.5 -55.5q-58 0 -106 13t-73.5 28t-54.5 28t-53 13 q-30 0 -43.5 -18t-13.5 -60h-184z" />
<glyph unicode="&#xf2;" d="M61 729q0 -91 1.5 -155.5t5.5 -134t12 -116.5t21 -97t32 -81.5t45.5 -62.5t60.5 -49t78 -32t98 -20t120 -6t120 6t98 20t78 32t60.5 49t45 62.5t31.5 81.5t21 97t12 116.5t5.5 134t1.5 155.5q0 88 -1.5 151t-5.5 132t-12 116t-21 97t-31.5 83t-45 65t-60.5 51t-78 34.5 t-98 22t-120 6.5t-120 -6.5t-98 -22t-78.5 -34.5t-60.5 -51t-45 -65t-32 -83t-21 -97.5t-12 -116t-5.5 -131.5t-1.5 -151zM113 1790h383l213 -242h-306zM420 729q0 107 1.5 173.5t6 124.5t11.5 88t21 52t31 28.5t44 6.5t44 -6.5t30.5 -28.5t20.5 -51.5t12 -88t6 -125 t1 -173.5q0 -110 -1 -176.5t-6 -124.5t-12 -86.5t-20.5 -49.5t-30.5 -26.5t-44 -5.5t-44 6t-31 26.5t-21 49t-11.5 86t-6 125t-1.5 176.5z" />
<glyph unicode="&#xf3;" d="M61 729q0 88 1.5 151t5.5 131.5t12 116t21 97.5t32 83t45 65t60.5 51t78.5 34.5t98 22t120 6.5t120 -6.5t98 -22t78 -34.5t60.5 -51t45 -65t31.5 -83t21 -97t12 -116t5.5 -132t1.5 -151q0 -91 -1.5 -155.5t-5.5 -134t-12 -116.5t-21 -97t-31.5 -81.5t-45 -62.5t-60.5 -49 t-78 -32t-98 -20t-120 -6t-120 6t-98 20t-78 32t-60.5 49t-45.5 62.5t-32 81.5t-21 97t-12 116.5t-5.5 134t-1.5 155.5zM358 1548l213 242h383l-290 -242h-306zM420 729q0 -109 1.5 -176.5t6 -125t11.5 -86t21 -49t31 -26.5t44 -6t44 5.5t30.5 26.5t20.5 49.5t12 86.5 t6 124.5t1 176.5q0 107 -1 173.5t-6 125t-12 88t-20.5 51.5t-30.5 28.5t-44 6.5t-44 -6.5t-31 -28.5t-21 -52t-11.5 -88t-6 -124.5t-1.5 -173.5z" />
<glyph unicode="&#xf4;" d="M61 729q0 -91 1.5 -155.5t5.5 -134t12 -116.5t21 -97t32 -81.5t45.5 -62.5t60.5 -49t78 -32t98 -20t120 -6t120 6t98 20t78 32t60.5 49t45 62.5t31.5 81.5t21 97t12 116.5t5.5 134t1.5 155.5q0 88 -1.5 151t-5.5 132t-12 116t-21 97t-31.5 83t-45 65t-60.5 51t-78 34.5 t-98 22t-120 6.5t-120 -6.5t-98 -22t-78.5 -34.5t-60.5 -51t-45 -65t-32 -83t-21 -97.5t-12 -116t-5.5 -131.5t-1.5 -151zM109 1546l311 242h229l312 -242h-343l-83 92l-84 -92h-342zM420 729q0 107 1.5 173.5t6 124.5t11.5 88t21 52t31 28.5t44 6.5t44 -6.5t30.5 -28.5 t20.5 -51.5t12 -88t6 -125t1 -173.5q0 -110 -1 -176.5t-6 -124.5t-12 -86.5t-20.5 -49.5t-30.5 -26.5t-44 -5.5t-44 6t-31 26.5t-21 49t-11.5 86t-6 125t-1.5 176.5z" />
<glyph unicode="&#xf5;" d="M61 729q0 88 1.5 151t5.5 131.5t12 116t21 97.5t32 83t45 65t60.5 51t78.5 34.5t98 22t120 6.5t120 -6.5t98 -22t78 -34.5t60.5 -51t45 -65t31.5 -83t21 -97t12 -116t5.5 -132t1.5 -151q0 -91 -1.5 -155.5t-5.5 -134t-12 -116.5t-21 -97t-31.5 -81.5t-45 -62.5t-60.5 -49 t-78 -32t-98 -20t-120 -6t-120 6t-98 20t-78 32t-60.5 49t-45.5 62.5t-32 81.5t-21 97t-12 116.5t-5.5 134t-1.5 155.5zM176 1548q0 149 40 205.5t149 56.5q58 -1 106 -13.5t73.5 -27.5t55 -27.5t55.5 -12.5q28 0 41 17t13 58h184q0 -149 -39.5 -204.5t-148.5 -55.5 q-58 0 -106 13t-73.5 28t-54.5 28t-53 13q-30 0 -44 -18t-14 -60h-184zM420 729q0 -109 1.5 -176.5t6 -125t11.5 -86t21 -49t31 -26.5t44 -6t44 5.5t30.5 26.5t20.5 49.5t12 86.5t6 124.5t1 176.5q0 107 -1 173.5t-6 125t-12 88t-20.5 51.5t-30.5 28.5t-44 6.5t-44 -6.5 t-31 -28.5t-21 -52t-11.5 -88t-6 -124.5t-1.5 -173.5z" />
<glyph unicode="&#xf6;" d="M61 729q0 -91 1.5 -155.5t5.5 -134t12 -116.5t21 -97t32 -81.5t45.5 -62.5t60.5 -49t78 -32t98 -20t120 -6t120 6t98 20t78 32t60.5 49t45 62.5t31.5 81.5t21 97t12 116.5t5.5 134t1.5 155.5q0 88 -1.5 151t-5.5 132t-12 116t-21 97t-31.5 83t-45 65t-60.5 51t-78 34.5 t-98 22t-120 6.5t-120 -6.5t-98 -22t-78.5 -34.5t-60.5 -51t-45 -65t-32 -83t-21 -97.5t-12 -116t-5.5 -131.5t-1.5 -151zM231 1542v236h236v-236h-236zM420 729q0 107 1.5 173.5t6 124.5t11.5 88t21 52t31 28.5t44 6.5t44 -6.5t30.5 -28.5t20.5 -51.5t12 -88t6 -125 t1 -173.5q0 -110 -1 -176.5t-6 -124.5t-12 -86.5t-20.5 -49.5t-30.5 -26.5t-44 -5.5t-44 6t-31 26.5t-21 49t-11.5 86t-6 125t-1.5 176.5zM600 1542v236h236v-236h-236z" />
<glyph unicode="&#xf7;" horiz-adv-x="972" d="M70 592v246h833v-246h-833zM354 211v270h271v-270h-271zM354 950v271h271v-271h-271z" />
<glyph unicode="&#xf8;" horiz-adv-x="1101" d="M-20 -43l143 252q-27 83 -36 204t-9 316q0 88 1.5 151t5.5 132t12 116t21 97t31.5 83t45 65t60.5 51t78 34.5t98 22t120 6.5q170 0 268 -49l39 67h264l-145 -256q28 -85 37.5 -206t9.5 -314q0 -91 -1.5 -155.5t-5.5 -134t-12 -116.5t-21 -97t-31.5 -81.5t-45 -62.5 t-60.5 -49t-78 -32t-98 -20t-120 -6q-173 0 -272 45l-35 -63h-264zM436 729q0 -109 1.5 -176.5t6 -125t11.5 -86t21 -49t31 -26.5t44 -6t44 6t31 26.5t21 49t11.5 86t6 125t1.5 176.5q0 107 -1.5 173.5t-6 124.5t-11.5 88t-21 52t-31 28.5t-44 6.5t-44 -6.5t-31 -28.5 t-21 -52t-11.5 -88t-6 -124.5t-1.5 -173.5z" />
<glyph unicode="&#xf9;" d="M61 649q0 -147 8.5 -248.5t31 -179.5t55 -123.5t88.5 -74t123.5 -38.5t167.5 -10q74 0 129 5.5t104.5 20t83 37t62 60.5t45 86.5t28.5 118.5t16.5 153t4.5 193v813h-332v-813q0 -104 -3 -167.5t-11 -114t-24.5 -75t-40.5 -36.5t-62 -12q-32 0 -53.5 7t-38 26.5t-26 47 t-15 76t-7.5 105.5t-2 143v813h-332v-813zM113 1790h383l213 -242h-306z" />
<glyph unicode="&#xfa;" d="M61 649v813h332v-813q0 -86 2 -143t7.5 -105.5t15 -76t26 -47t38 -26.5t53.5 -7q38 0 62 12t40.5 36.5t24.5 75t11 114t3 167.5v813h332v-813q0 -110 -4.5 -193t-16.5 -153t-28.5 -118.5t-45 -86.5t-62 -60.5t-83 -37t-104.5 -20t-129 -5.5q-100 0 -167.5 10t-123.5 38.5 t-88.5 74t-55 123.5t-31 179.5t-8.5 248.5zM365 1548l213 242h383l-291 -242h-305z" />
<glyph unicode="&#xfb;" d="M61 649q0 -147 8.5 -248.5t31 -179.5t55 -123.5t88.5 -74t123.5 -38.5t167.5 -10q74 0 129 5.5t104.5 20t83 37t62 60.5t45 86.5t28.5 118.5t16.5 153t4.5 193v813h-332v-813q0 -104 -3 -167.5t-11 -114t-24.5 -75t-40.5 -36.5t-62 -12q-32 0 -53.5 7t-38 26.5t-26 47 t-15 76t-7.5 105.5t-2 143v813h-332v-813zM109 1546l311 242h229l312 -242h-343l-83 92l-84 -92h-342z" />
<glyph unicode="&#xfc;" d="M61 649q0 -147 8.5 -248.5t31 -179.5t55 -123.5t88.5 -74t123.5 -38.5t167.5 -10q74 0 129 5.5t104.5 20t83 37t62 60.5t45 86.5t28.5 118.5t16.5 153t4.5 193v813h-332v-813q0 -104 -3 -167.5t-11 -114t-24.5 -75t-40.5 -36.5t-62 -12q-32 0 -53.5 7t-38 26.5t-26 47 t-15 76t-7.5 105.5t-2 143v813h-332v-813zM231 1542v236h236v-236h-236zM600 1542v236h236v-236h-236z" />
<glyph unicode="&#xfd;" horiz-adv-x="1163" d="M61 1462h345l176 -499l176 499h344l-357 -809v-653h-327v653zM408 1548l213 242h383l-291 -242h-305z" />
<glyph unicode="&#xfe;" horiz-adv-x="966" d="M70 0v1462h299v-186h131q220 0 312.5 -101.5t92.5 -328.5q0 -230 -90.5 -330.5t-310.5 -101.5h-135v-414h-299zM369 672h102q89 0 125.5 41.5t36.5 132.5q0 92 -37 132t-125 40h-102v-346z" />
<glyph unicode="&#xff;" horiz-adv-x="1163" d="M61 1462l357 -809v-653h327v653l357 809h-344l-176 -499l-176 499h-345zM270 1542v236h236v-236h-236zM639 1542v236h235v-236h-235z" />
<glyph unicode="&#x152;" horiz-adv-x="1484" d="M61 729q0 128 3.5 209.5t13.5 167.5t31 136t54.5 97.5t85 71t121.5 37.5t165 14h888v-284h-415v-289h313v-264h-313v-340h415v-285h-888q-67 0 -120.5 5t-98 18.5t-78 29.5t-60.5 45.5t-45.5 59t-31.5 77.5t-21 93.5t-12 113.5t-5.5 132t-1.5 155zM420 729 q0 -109 1.5 -177.5t6 -128t11.5 -91t20.5 -54t31 -29.5t44.5 -7q20 0 34.5 4t26.5 15.5t20 27t14 45t9.5 62.5t6 86t3 109t0.5 138q0 108 -1.5 175.5t-5.5 128t-11.5 92.5t-20.5 56t-31 32t-44 8t-44 -8t-31 -32t-20.5 -56.5t-12 -92.5t-6 -128t-1.5 -175z" />
<glyph unicode="&#x153;" horiz-adv-x="1484" d="M61 729q0 128 3.5 209.5t13.5 167.5t31 136t54.5 97.5t85 71t121.5 37.5t165 14h888v-284h-415v-289h313v-264h-313v-340h415v-285h-888q-67 0 -120.5 5t-98 18.5t-78 29.5t-60.5 45.5t-45.5 59t-31.5 77.5t-21 93.5t-12 113.5t-5.5 132t-1.5 155zM420 729 q0 -109 1.5 -177.5t6 -128t11.5 -91t20.5 -54t31 -29.5t44.5 -7q20 0 34.5 4t26.5 15.5t20 27t14 45t9.5 62.5t6 86t3 109t0.5 138q0 108 -1.5 175.5t-5.5 128t-11.5 92.5t-20.5 56t-31 32t-44 8t-44 -8t-31 -32t-20.5 -56.5t-12 -92.5t-6 -128t-1.5 -175z" />
<glyph unicode="&#x178;" horiz-adv-x="1163" d="M61 1462l357 -809v-653h327v653l357 809h-344l-176 -499l-176 499h-345zM276 1542v236h236v-236h-236zM645 1542v236h236v-236h-236z" />
<glyph unicode="&#x2c6;" horiz-adv-x="995" d="M74 1378l311 242h229l312 -242h-342l-84 92l-84 -92h-342z" />
<glyph unicode="&#x2dc;" horiz-adv-x="929" d="M104 1380q0 149 40 205.5t149 56.5q58 -1 106.5 -13.5t74 -27.5t55 -27.5t55.5 -12.5q28 0 40.5 17t12.5 58h184q0 -149 -39.5 -204.5t-148.5 -55.5q-58 0 -106 13t-73.5 28t-54.5 28t-53 13q-30 0 -43.5 -18t-13.5 -60h-185z" />
<glyph unicode="&#x2000;" horiz-adv-x="905" />
<glyph unicode="&#x2001;" horiz-adv-x="1810" />
<glyph unicode="&#x2002;" horiz-adv-x="905" />
<glyph unicode="&#x2003;" horiz-adv-x="1810" />
<glyph unicode="&#x2004;" horiz-adv-x="603" />
<glyph unicode="&#x2005;" horiz-adv-x="452" />
<glyph unicode="&#x2006;" horiz-adv-x="301" />
<glyph unicode="&#x2007;" horiz-adv-x="301" />
<glyph unicode="&#x2008;" horiz-adv-x="226" />
<glyph unicode="&#x2009;" horiz-adv-x="362" />
<glyph unicode="&#x200a;" horiz-adv-x="100" />
<glyph unicode="&#x2010;" horiz-adv-x="849" d="M70 596v246h710v-246h-710z" />
<glyph unicode="&#x2011;" horiz-adv-x="849" d="M70 596v246h710v-246h-710z" />
<glyph unicode="&#x2012;" horiz-adv-x="849" d="M70 596v246h710v-246h-710z" />
<glyph unicode="&#x2013;" horiz-adv-x="931" d="M70 596v246h792v-246h-792z" />
<glyph unicode="&#x2014;" horiz-adv-x="1402" d="M70 596v246h1263v-246h-1263z" />
<glyph unicode="&#x2018;" horiz-adv-x="393" d="M61 1462h271l-41 -471h-189z" />
<glyph unicode="&#x2019;" horiz-adv-x="393" d="M61 1462h271l-41 -471h-189z" />
<glyph unicode="&#x201a;" horiz-adv-x="393" d="M61 307h271l-41 -471h-189z" />
<glyph unicode="&#x201c;" horiz-adv-x="720" d="M61 1462h271l-41 -471h-189zM389 1462h270l-41 -471h-188z" />
<glyph unicode="&#x201d;" horiz-adv-x="720" d="M61 1462h271l-41 -471h-189zM389 1462h270l-41 -471h-188z" />
<glyph unicode="&#x201e;" horiz-adv-x="720" d="M61 307h271l-41 -471h-189zM389 307h270l-41 -471h-188z" />
<glyph unicode="&#x2022;" horiz-adv-x="649" d="M78 678q0 103 71.5 175.5t174.5 72.5t175 -72.5t72 -175.5t-72 -174.5t-175 -71.5t-174.5 71.5t-71.5 174.5z" />
<glyph unicode="&#x2026;" horiz-adv-x="1273" d="M70 0v270h270v-270h-270zM502 0v270h270v-270h-270zM934 0v270h270v-270h-270z" />
<glyph unicode="&#x202f;" horiz-adv-x="362" />
<glyph unicode="&#x2039;" horiz-adv-x="587" d="M66 733l210 623h246l-209 -623l209 -622h-246z" />
<glyph unicode="&#x203a;" horiz-adv-x="587" d="M66 111l208 622l-208 623h245l211 -623l-211 -622h-245z" />
<glyph unicode="&#x205f;" horiz-adv-x="452" />
<glyph unicode="&#x20ac;" horiz-adv-x="1075" d="M45 489v164h131v68v86h-131v164h137q9 147 35 241t82 158t145 90.5t226 26.5q89 0 173 -15t123 -30l40 -15l-80 -278q-96 47 -205 47q-57 0 -90 -15.5t-55.5 -65t-32.5 -144.5h395v-164h-403v-86v-68h403v-164h-397q7 -74 20 -119.5t37 -68t50.5 -29t72.5 -6.5 q48 0 99.5 12t78.5 24l27 11l80 -278q-15 -7 -43 -17t-116 -26.5t-177 -16.5q-141 0 -229.5 24.5t-145 87.5t-81.5 156.5t-34 245.5h-135z" />
<glyph unicode="&#x2122;" horiz-adv-x="1019" d="M66 1317v145h407v-145h-117v-383h-170v383h-120zM524 934v528h152l63 -198l64 198h151v-528h-131v225l-43 -225h-82l-43 225v-225h-131z" />
<glyph unicode="&#xe000;" horiz-adv-x="1464" d="M0 0v1464h1464v-1464h-1464z" />
</font>
</defs>
</svg>
