<svg xmlns="http://www.w3.org/2000/svg" width="1920.5" height="205.52" viewBox="0 0 1920.5 205.52" preserveAspectRatio="xMidYMax meet"><title>separation-gironde</title><path d="M1918,1520.5c-472.21-23.09-1279.45-10.65-1920,53V1638H1918Z" transform="translate(2.5 -1432.48)" style="fill:#fff;opacity:0.2"/><path d="M1917.5,1520.69c-175.56-5-477.69-1.31-805.24,11.88l-65.81-85.16c-7.4-9.58-23.28-16.2-35.29-14.72l-143.32,17.62c-12,1.48-25.59,11.85-30.17,23l-30.28,74C508.8,1564.48,214.66,1589.46-2.5,1623v15h1920Z" transform="translate(2.5 -1432.48)" style="fill:#fff"/><path d="M900.51,1525.54a1.34,1.34,0,0,1-.37-1c0-.38.27-.77.3-1.18s0-.55.06-.8a8.31,8.31,0,0,0,.16-1.22c.1-.34,0-.71.09-1.12-.16-.2.17-.36.08-.57l.06-.1h-.07c.26-.22,0-.38.15-.58a2.25,2.25,0,0,0-.05-.54c.25-.3-.2-.58.12-.82.12-.26,0-.47.07-.72a15,15,0,0,0,.08-2c.06-.1.12-.26,0-.33s.12-.18,0-.24.11-.26,0-.41a.61.61,0,0,1,.09-.49c-.21,0-.16-.28-.19-.51.13-.1,0-.15.05-.24.16-.44,0-.79.09-1.13a1.81,1.81,0,0,1,0-1c-.15-.2,0-.56-.07-.78a2.48,2.48,0,0,0,0-1.21c.13-.11-.1-.29.1-.42-.15-.12,0-.4-.06-.53.12-.19-.25-.41,0-.63-.16-.28,0-.54-.08-.85V1506c.06,0,0-.07,0-.15s-.11-.37,0-.56c-.15-.12-.12-.45-.07-.67a.85.85,0,0,1,0-.7c0-.23-.24-.34-.06-.62s-.25-.41-.07-.67c.16-.44-.27-.72,0-1.1a.66.66,0,0,1-.06-.61c-.09-.13,0-.39-.06-.61-.21-.1,0-.39-.13-.61a7.73,7.73,0,0,1-.3-1.65c-.07-.06-.08-.15-.1-.3.26-.14,0-.38.07-.67-.13-.67-.4-1.34-.46-1.93a.3.3,0,0,0,.2-.13c-.15,0-.15-.12-.23-.18.2-.13,0-.32,0-.48s-.08-.13-.1-.29a4.63,4.63,0,0,0-.23-1l0-.25c-.2.05,0-.31-.24-.33l.13-.11c-.08-.06-.1-.21-.11-.36a2.29,2.29,0,0,1-.14-.68c-.14,0-.08-.13-.1-.28s-.24-.34-.06-.67c-.14,0-.14,0-.08-.14l0-.17.07.06c.1-.42-.33-.63,0-1.1l.25-.29c.07,0,.09.14.22.11s.08.13.08.21h.07a2.08,2.08,0,0,1,.32.4l-.07.09c.28,0,.25.34.4.53h-.07c.1.21.56.41.72.61v.07c.27-.06.11.37.32.4a.27.27,0,0,0,.09.21h.07c0,.09,0,.33.08.22,0,.23.24.25.13.52.2,0,.15.2.24.34-.06.09,0,.07.08.13a6.5,6.5,0,0,0,.36.86l-.06.09c.15.13.18.43.27.68-.06.09.09.21.1.28s0,.23.17.28c-.05.25.18.43.13.67.15.12,0,.46.19.58s.19.5.09.77c.06,0,.16.61.16.61.11.44.21.4.26.86a.92.92,0,0,1,.06.61c.15.2.13.6.28.8-.07,0,0,.44.05.51s-.06,0,0,.26l.15.3c.09.21-.1.24,0,.46-.07-.06.1.21.11.28s0,0-.07.1c.11.37.07.76.19,1.21v.36c.34,0-.06.14.1.33-.06.1.08.22,0,.39a2.54,2.54,0,0,0,.06.67c-.05.16,0,.38,0,.55,0,.39,0,.86.06,1.25a5,5,0,0,1,0,.87.9.9,0,0,1,0,.4c.08.13,0,.25,0,.38-.2.13,0,.16,0,.33a41.71,41.71,0,0,1-.28,4.17,7.28,7.28,0,0,1-.16,1.22,3,3,0,0,1-.09,1.12,33.88,33.88,0,0,1-.75,4.28c-.27,1.49-.53,3-.94,4.57-.17.36-.07.67-.38,1-.2,0-.24.38-.43.5s-.92.23-1.18.37" transform="translate(2.5 -1432.48)" style="fill:#8ea7ca"/><path d="M921.48,1484a1.58,1.58,0,0,0-.56,1.22c0,.41.47.64.54,1,.19.2,0,.55.13.78a4.46,4.46,0,0,1,.3,1.14c.18.29,0,.72.21,1.09-.25.29.29.27.15.53l.1.06h-.11c.43.08,0,.41.27.51l-.07.57c.42.17-.28.67.25.76.19.21.06.47.14.67a10.89,10.89,0,0,1,.21,2c.1.06.2.2.07.3a.13.13,0,0,1,.14.11.13.13,0,0,1,0,.12c0,.16.19.2.06.38a.39.39,0,0,0,.17.45c-.34.15-.25.37-.28.61.21,0,0,.17.08.23.29.35,0,.8.21,1.09a1.09,1.09,0,0,0,.1,1c-.25.28,0,.55-.09.82a1.7,1.7,0,0,1,0,1.29c.22,0-.15.34.17.36-.24.21.07.39-.06.57.21.13-.38.55,0,.64-.25.37-.06.57-.1.9v.08c.11,0,0,.08,0,.17s-.15.43,0,.55a.63.63,0,0,0-.08.74.6.6,0,0,0,0,.72c0,.24-.38.46-.07.67.07.3-.39.55-.08.73.28.35-.43.88,0,1.13-.13.18-.27.45-.07.67-.13.18,0,.41-.07.67-.35.22,0,.41-.19.67a6.47,6.47,0,0,0-.42,1.84.47.47,0,0,0-.15.35c.44,0,0,.41.15.62a21.42,21.42,0,0,0-.67,2.2.44.44,0,0,1,.32,0c-.23.13-.23.21-.35.31.32,0,.07.3,0,.47a.43.43,0,0,0-.15.34,4.23,4.23,0,0,1-.33,1.1l.08.23c-.33.06,0,.33-.38.47l.21,0a.6.6,0,0,0-.15.43,1.77,1.77,0,0,0-.19.75c-.23.12-.13.18-.15.35s-.37.47-.08.74c-.22,0-.23.12-.13.18l.09.15.12-.1c.18.37-.52.82,0,1.13l.42.16c.1,0,.12-.19.35-.23,0-.08.12-.18.13-.26h.11a4.44,4.44,0,0,0,.5-.57l-.1-.06c.45-.17.38-.47.62-.76h-.1a3.81,3.81,0,0,1,.53-.89v-.08c.43-.09.15-.43.49-.58a.31.31,0,0,1,.14-.26h.1c0-.08-.07-.31.14-.27,0-.24.37-.38.17-.59.32-.06.24-.28.37-.47-.1-.06,0-.08.13-.19a8.12,8.12,0,0,1,.54-1.06l-.1-.06c.24-.2.28-.53.41-.8-.1-.06.14-.27.15-.35.22,0,0-.25.25-.37-.08-.22.27-.53.19-.75.24-.21.06-.49.29-.67,0-.25.28-.62.09-.82h.11a10.08,10.08,0,0,0,.51-1.7.67.67,0,0,0,.07-.67c.25-.29.18-.67.43-1-.11,0-.11,0-.1-.06.23-.2,0-.49.18-.75s.06-.58.21-.84c-.12.1-.11,0-.1-.06s.24-.28.14-.35c.16-.43.09-.82.26-1.34l-.22,0c.57-.18.05-.41.3-.67-.1-.06.14-.27,0-.41a1.37,1.37,0,0,1,.08-.74c-.1-.14,0-.41-.05-.55a11.1,11.1,0,0,0,0-1.29,5.15,5.15,0,0,1,0-.88c0-.08,0-.33-.06-.39.13-.18-.09-.22,0-.4-.32,0,0-.17-.08-.31a22.84,22.84,0,0,0-.63-4c-.18-.37,0-.8-.31-1.15a1.64,1.64,0,0,0-.2-1.08,17.36,17.36,0,0,0-1.4-3.91,31.36,31.36,0,0,0-1.71-4.1c-.3-.27-.15-.62-.68-.85-.32.06-.4-.25-.72-.27s-.88.16-1.34.16" transform="translate(2.5 -1432.48)" style="fill:#1e4f95"/><path d="M916.81,1491.66a1.26,1.26,0,0,1,.28,1.1c0,.37-.52.56-.67.91-.2.18-.14.5-.25.67a4.69,4.69,0,0,0-.46,1c-.21.25-.15.67-.37,1,.17.26-.3.23-.23.47l-.1.06h.1c-.39.06,0,.36-.33.44a2.6,2.6,0,0,1,0,.52c-.39.14.13.63-.35.67-.2.18-.13.42-.24.62a10.33,10.33,0,0,0-.5,1.81c-.1,0-.2.18-.11.28a.12.12,0,0,0-.15.09.11.11,0,0,0,0,.11c0,.14-.2.18-.13.35a.41.41,0,0,1-.22.39c.27.14.16.34.14.55-.19,0,0,.15-.11.2-.31.3-.15.71-.37,1a1.12,1.12,0,0,1-.27.91c.16.26-.14.49-.06.73a1.61,1.61,0,0,0-.2,1.15c-.19,0,.07.31-.21.33.16.19-.13.35,0,.51-.2.11.23.5-.14.56.15.34,0,.52-.08.81v.07c-.09,0,0,.07,0,.15s.06.39-.13.49c.17.19,0,.46-.06.67a.57.57,0,0,1-.15.68c0,.22.24.42,0,.58s.23.5-.07.67.21.79-.18,1a.46.46,0,0,1-.05.58.92.92,0,0,1,0,.58c.26.21,0,.37,0,.61a5.37,5.37,0,0,1,0,1.65c.08.09.07.17.06.31-.37,0,0,.37-.23.55a16.68,16.68,0,0,1,.2,2,.34.34,0,0,0-.28,0c.17.11.17.19.25.28-.28,0-.11.28-.13.42s.08.16.07.31a3.66,3.66,0,0,0,.1,1l-.12.2c.28.06,0,.29.24.42l-.18,0a.5.5,0,0,1,.06.38,1.56,1.56,0,0,1,0,.68c.17.11.08.16.06.31s.25.42-.06.67c.19,0,.18.12.08.17l-.1.13-.09-.1c-.21.33.31.74-.18,1l-.39.14c-.09,0-.08-.17-.26-.21,0-.07-.08-.17-.08-.24H910a2.55,2.55,0,0,1-.33-.52l.1,0c-.36-.15-.24-.43-.41-.67h.1a3.74,3.74,0,0,0-.3-.81v-.08c-.37-.08-.07-.39-.33-.52a.27.27,0,0,0-.08-.24h-.09c0-.07.11-.28-.08-.24,0-.22-.24-.35,0-.53-.28-.06-.17-.26-.25-.43.1,0,0-.07-.08-.16a6.24,6.24,0,0,0-.25-1.12l.1,0c-.17-.19-.15-.48-.21-.72.1,0-.08-.24-.07-.31-.18,0,0-.22-.16-.34.11-.2-.15-.47,0-.67-.17-.19,0-.44-.13-.62,0-.22-.14-.55.06-.73h-.09a7.93,7.93,0,0,1-.15-1.53.7.7,0,0,1,.05-.58c-.16-.26,0-.6-.2-.87.09,0,.09,0,.1,0-.17-.19,0-.44,0-.67s0-.52,0-.75c.08.09.09,0,.1-.06s-.17-.26-.07-.31c-.06-.39.07-.73,0-1.2h.19c-.46-.17,0-.36-.14-.62.1,0-.07-.24,0-.37a.9.9,0,0,0,.06-.67c.11-.13,0-.36.14-.49,0-.37.16-.78.19-1.15s.14-.5.16-.79c0-.07,0-.29.12-.34-.08-.17.12-.2,0-.37.28,0,0-.15.12-.27a24.07,24.07,0,0,1,1.25-3.61c.22-.32.16-.71.47-1a1.66,1.66,0,0,1,.31-1,19.21,19.21,0,0,1,1.91-3.47,32.64,32.64,0,0,1,2.2-3.62c.3-.24.23-.55.71-.74.28.06.4-.21.68-.23s.73.16,1.11.17" transform="translate(2.5 -1432.48)" style="fill:#1e4f95"/><path d="M889.74,1545.87a2,2,0,0,0,.67-1.29c.12-.49-.23-1-.19-1.49-.11-.34.07-.71.06-1a8.13,8.13,0,0,1,0-1.56c-.08-.43.13-.9.07-1.43.24-.25-.17-.45,0-.73l-.35-2.88h.09c-.3-.28.12-.48-.1-.75,0-.19.09-.39.17-.67-.28-.38.36-.74,0-1-.11-.34.05-.61,0-.92a21.44,21.44,0,0,1,.24-2.53c-.06-.12-.11-.34,0-.42-.09,0-.13-.23,0-.31s-.11-.34,0-.51a.86.86,0,0,0,0-.63c.28,0,.26-.35.33-.67-.15-.15,0-.2,0-.32-.15-.55.15-1,.07-1.43a2.28,2.28,0,0,0,.13-1.34c.24-.25.07-.7.23-1a3.2,3.2,0,0,1,.29-1.59c-.16-.14.18-.37-.06-.53.22-.16,0-.51.16-.67-.13-.25.4-.53.1-.81.27-.35.16-.67.25-1.08v-.09c-.08,0,0-.1.05-.2a.92.92,0,0,0,.08-.7c.22-.15.22-.56.21-.88a1.12,1.12,0,0,0,.13-.91c.07-.29.38-.42.19-.77,0-.42.4-.53.21-.89-.15-.56.5-.91.24-1.39a.82.82,0,0,0,.16-.71c.14-.17.12-.49.19-.78.31-.13.11-.49.28-.76a10.36,10.36,0,0,0,.67-2.11c.1-.08.13-.17.17-.37-.32-.18.12-.49,0-.82.3-.86.78-1.68,1-2.46a.3.3,0,0,1-.24-.16c.2,0,.22-.15.32-.23-.23-.16,0-.41.06-.6s.13-.17.18-.37a5.6,5.6,0,0,1,.48-1.23v-.31c.26.06.09-.39.38-.43l-.1-.15c.11-.07.16-.27.2-.46a2.67,2.67,0,0,0,.3-.86c.2-.05.13-.18.18-.37s.38-.42.21-.88c.17,0,.2-.06.13-.17l0-.22-.1.08c-.06-.53.56-.8.24-1.39l-.28-.38c-.09,0-.14.17-.31.13,0,.1-.14.17-.16.27h-.09a3,3,0,0,0-.49.51l.07.12c-.38,0-.39.43-.63.67h.09a4.86,4.86,0,0,1-.6.9v.09c-.35-.08-.21.47-.49.5a.41.41,0,0,1-.17.27h-.08c0,.1,0,.42-.16.28-.07.29-.36.33-.26.67-.26-.06-.24.25-.38.42.07.12,0,.1-.13.18a9.88,9.88,0,0,1-.64,1.08l.07.12c-.23.16-.32.55-.48.82.07.12-.16.28-.18.37-.18,0-.08.3-.28.35,0,.32-.31.54-.3.86-.22.15-.14.58-.36.74s-.34.67-.24,1h-.08a13.93,13.93,0,0,0-.73,1.89,1.19,1.19,0,0,0-.19.78c-.25.25-.28.76-.53,1,.09,0,.09,0,.06.12-.22.15-.14.58-.29.86s-.17.67-.32,1c.1-.07.08,0,.06.12s-.25.25-.18.37c-.21.46-.24,1-.47,1.54l.15.14c-.46,0-.11.49-.36.74.07.12-.16.27-.12.49a3.32,3.32,0,0,1-.21.88c0,.22-.12.49-.07.7-.12.49-.17,1.11-.29,1.59s-.08.71-.18,1.1a1.1,1.1,0,0,0,0,.51c-.13.18,0,.32-.11.49.24.17-.05.2,0,.41a47,47,0,0,0-.35,5.3,10.16,10.16,0,0,0,0,1.56,3.63,3.63,0,0,0-.07,1.43,38.2,38.2,0,0,0,.27,5.45c.1,1.88.47,6.63.74,8.56.17.46,0,.83.33,1.34.26.07.25.48.5.67s.67.18,1,.36" transform="translate(2.5 -1432.48)" style="fill:#95b701"/><path d="M878.57,1530a1,1,0,0,1-.57-1c0-.38.48-.79.55-1.19s.05-.56.13-.81a4.73,4.73,0,0,0,.31-1.23c.19-.35,0-.71.22-1.14-.26-.18.3-.37.16-.57l.1-.1h-.11c.43-.24-.05-.38.27-.59a1.88,1.88,0,0,0-.06-.54c.42-.32-.29-.57.25-.83.2-.27.06-.48.15-.73a11.25,11.25,0,0,0,.23-2c.1-.1.2-.27.07-.33.11,0,.21-.19.09-.25s.2-.27.06-.4a.5.5,0,0,1,.18-.5c-.35,0-.26-.26-.29-.49.21-.12,0-.16.09-.26.29-.44,0-.78.21-1.13a1.16,1.16,0,0,1,.11-1c-.25-.19,0-.56-.09-.76a1.6,1.6,0,0,0,0-1.25c.22-.12-.15-.28.18-.43-.24-.1.07-.4-.06-.53.21-.2-.39-.4,0-.64-.26-.26-.06-.54-.09-.84v-.06c.11,0,0-.07,0-.15s-.16-.36,0-.56c-.25-.11-.17-.44-.08-.67a.56.56,0,0,1,0-.71c0-.23-.39-.32-.08-.61.08-.33-.39-.4-.08-.67.3-.45-.42-.67,0-1.1a.42.42,0,0,1-.07-.6h0c-.13-.13,0-.38-.07-.61-.36-.08,0-.38-.18-.59a4.23,4.23,0,0,1-.42-1.64c-.12-.05-.13-.13-.15-.29.44-.16,0-.38.15-.67a14.28,14.28,0,0,1-.67-1.9.67.67,0,0,0,.33-.15c-.23,0-.24-.11-.36-.16.33-.14.08-.33.06-.49s-.13-.13-.15-.28a3,3,0,0,0-.34-1l.09-.25c-.34.06,0-.3-.39-.32l.22-.11c-.12-.06-.14-.21-.16-.36a1.37,1.37,0,0,1-.2-.67c-.23,0-.12-.13-.14-.29s-.39-.32-.08-.67c-.23,0-.24,0-.13-.13l.09-.18.12.06c.18-.42-.53-.61,0-1.1l.42-.31c.12,0,.14.13.36.09,0,.08.13.14.14.21h.12c.24.11.24.19.5.38l-.1.09c.45,0,.37.32.63.51H880a2.49,2.49,0,0,0,.54.67v.07c.45-.08.16.37.5.38a.24.24,0,0,0,.14.21h.11c0,.07-.07.33.14.21,0,.22.37.24.18.51.33-.06.25.19.38.32-.1.11,0,.08.13.14,0,.23.41.55.55.83l-.1.1c.25.12.28.42.42.63-.1.09.14.2.15.28.22,0,0,.23.26.26-.09.25.27.41.19.67.24.11.06.46.3.57,0,.23.29.5.09.76h.11a7.79,7.79,0,0,1,.52,1.47.61.61,0,0,1,.07.61c.25.19.18.59.44.78-.12,0-.12,0-.1.1.24.11.05.45.18.67s.06.53.2.74c-.12-.05-.11,0-.1.1s.25.18.15.28c.16.37.09.77.26,1.2l-.22.13c.57,0,0,.38.3.57-.11.09.14.2,0,.38a1.09,1.09,0,0,0,.08.67c-.09.17,0,.38,0,.56a10.26,10.26,0,0,1,0,1.24,4.93,4.93,0,0,0,0,.86c0,.08,0,.31-.07.4.13.14-.08.25.05.39-.33.14,0,.15-.08.33a25.63,25.63,0,0,1-.67,4.18c-.18.42,0,.79-.32,1.24a1.86,1.86,0,0,1-.21,1.13,22.72,22.72,0,0,1-1.45,4.33,40.58,40.58,0,0,1-1.76,4.64c-.3.37-.15.67-.67,1.07-.34.06-.41.38-.74.53a9,9,0,0,1-1.34.32" transform="translate(2.5 -1432.48)" style="fill:#1e4f95"/><path d="M875.29,1498.51l-.09-.07c-.11.07-.28-.08-.38,0-.43.36-1.35,0-1.42.58-.32.22-.07.51-.28.67,0,.29-.35.44-.47.67.09.08-.12.15-.13.22l.09.07c-.13.22-.17.51-.38.67s-.08.58-.4.88a2.75,2.75,0,0,0-.35,1.16c-.19,0,0,.14-.13.21l.09.07a.53.53,0,0,0-.3.69v0c-.1.07-.1.07-.11.15v.06a3.34,3.34,0,0,0-.37,1.31.29.29,0,0,1-.22.22c0,.28-.17.51-.21.79a.62.62,0,0,1-.15.44c0,.3-.27.58-.21.8-.22.22-.15.43-.37.67.25.29-.24.36-.08.58,0,.22-.34.37-.16.51,0,.22-.24.37-.37.58.1,0,.1,0,.09.07a1.78,1.78,0,0,0-.29.73c.07.15-.32.21-.05.36-.29,0,.07.21-.22.21-.23.29,0,.44-.28.68.16.21-.16.43,0,.67,0,.14-.43.36-.28.67,0,.14-.23.29-.16.43s-.2.08-.23.29l.09.08c-.19,0-.11.14-.12.21s0,.15-.11.15c-.33.21-.19.67-.41.87s.14.29-.15.36c0,.15-.13.22.05.36s-.13.22-.14.37-.31.14-.23.22,0,.29.14.36c-.09,0-.09,0-.1.07s.09.08.08.15c-.38,0-.22.22-.42.29-.23.29-.07.51-.21.8a.12.12,0,0,0-.17,0l0,.06c.07.22-.15.44,0,.59a14.64,14.64,0,0,0-.78,1.59c-.22.22-.18.58-.49.79.18.08.07.15.06.3-.2,0,0,.07-.11.07a.41.41,0,0,0-.13.29c.16.15-.23.29-.06.44-.11.07,0,.21-.14.29-.23.28-.08.58-.39.79.09,0,0,.15-.12.15s-.06.44-.25.44c-.16.51-.58.8-.75,1.3.08.15-.23.29-.15.44-.12.14-.13.21-.33.28.16.23-.32.23-.25.44-.31.21-.18.67-.67.87-.11.15,0,.36-.06.44a1.47,1.47,0,0,0-.33.36c-.23.29-.09.67-.42,1-.11.07,0,.21-.13.28s-.51.22-.35.44c-.13.22-.53.36-.56.58s0,.22-.14.37,0,.28-.24.36c.07.15.18,0,.29,0a18.3,18.3,0,0,0,3.47-2.39,22.93,22.93,0,0,0,1.65-1.6c.19,0,.13-.22.22-.21a4.66,4.66,0,0,0,.67-.8c.2-.07.24-.29.34-.36h-.1a1.29,1.29,0,0,0,.57-.67,14,14,0,0,0,1.78-2.54c.11-.07.14-.29.25-.43s.25-.44.37-.59a12,12,0,0,1,1-1.84c-.07-.22.26-.51.39-.72a1.76,1.76,0,0,0,.19-.72l.2-.08a15.82,15.82,0,0,1,.67-1.45,9.65,9.65,0,0,1,.57-1.37c.37-1.24.95-2,1.31-3.26a.44.44,0,0,0,.14-.3c.59-1.52,1-3,1.65-4.42-.05-.36.3-.8.26-1.23a9.47,9.47,0,0,0,.48-1.45c.38-.67.27-1.31.67-2l-.08-.07a21.3,21.3,0,0,0,1-3.92.52.52,0,0,0,.07-.51c.11-.15-.17-.15-.26-.22s-.38,0-.46-.14l-.1.07c0-.36-.47-.07-.74-.15Z" transform="translate(2.5 -1432.48)" style="fill:#1e4f95"/><path d="M899.5,1475.79v-.15l0,.11v0" transform="translate(2.5 -1432.48)" style="fill:#00a995"/><path d="M870.08,1495.88c-5.64,2.85-10.73,5.3-14.93,8.56a15,15,0,0,0-4.77,5.24c-.78,1.46-1.45,3.81-.83,5.17,1.12,2.45,3.91,4,6.61,4.58,1.19.24.67,0,1.89,0l1.52-.16h0l.53-.14,1-.25.62-.1h-.13l1-.16h.16l.41,0a.66.66,0,0,1,.51.21,1.21,1.21,0,0,1,.39,1.06,2.54,2.54,0,0,1-1.1,1.21,10,10,0,0,1-4,1.07c-7.94,1.06-9.89-3.83-10.91-6.23a11.37,11.37,0,0,1,2-10.43c4.62-5.36,16.69-12,20.52-13.37,0,0,13.38-5.15,19.32-6.63s9.3-2.15,11.45-2.24h.25l.22-.09a11.38,11.38,0,0,1,2.3-.5,109.13,109.13,0,0,1,25-.06l1,.09h-.05c4.2.31,8.32,2.62,9.8,5.49a6.68,6.68,0,0,1-.79,6.79c-1.55,2.14-6.13,4.51-10.73,6.17s-9.76,1.47-12.85,1.82c-5.78,0-9.39-.12-13.55-1.34h.24l4.36-.5.67-.17,1.72-.36.39-.12a23.5,23.5,0,0,1,5.05-1.12h.27l3-.83,10.89-2.27h-.09c.23-.06.47-.12,5.08-2.72,5-2.81,4.12-3,4.17-3.55l0,.28-.18-.82c-.62-.91-.73-1.3-1.59-1.77l-.49-.27c-3.92-2.22-7.74-2.15-12.64-2.49l-3.1-.19s-1.63.25-1.59.28a22.82,22.82,0,0,0-4.13.19c-2.07-.27-3.57.26-5.53.57l-1.69.09c-6,.91-30.19,6.63-36.84,10" transform="translate(2.5 -1432.48)" style="fill:#95b701"/><path d="M895.7,1467h0a13,13,0,0,1,2.8-2c.55-.22,1.1-.48,1.65-.73a4.89,4.89,0,0,1,2.06,1.09,2.48,2.48,0,0,1,1.24,1.27c.67,2.13-3.19,6-4.32,6.87a38.86,38.86,0,0,1-3.66,1.4,4.92,4.92,0,0,1-1.9-.26c-2.74-1.58.53-6.17,2.13-7.65m-2.5,12.19c2.19,1.34,4.46-.18,6.5-1.67,4.38-3.2,8.22-10.11,3.73-15.09-.45-.47-.92-.81-1.34-1.23-.62-.57-.87-1.09-1.8-1.13-2.73,1-4.81,1.91-7.09,4.86a12.67,12.67,0,0,0-1.51,3.43,19.13,19.13,0,0,0-1,3.78C890.35,1474.93,891.53,1478.11,893.2,1479.12Z" transform="translate(2.5 -1432.48)" style="fill:#1e4f95"/><path d="M870.39,1480.64h0c-1.34-1.49-3.79-6-.67-7.16a5.72,5.72,0,0,1,2-.06c.18.14,1.59.87,1.57,1h.16l0-.46h.4c.43.35.89.61,1.3,1,1,.93,4.14,4.75,3.06,6.63a3,3,0,0,1-1.54,1.06,6.2,6.2,0,0,1-2.32.82c-.52-.28-1-.56-1.56-.82a11.52,11.52,0,0,1-2.47-2m-.09-11.31c-1.95.78-3.81,3.58-4,6.23a14.94,14.94,0,0,0,.22,3.53,9.49,9.49,0,0,0,.86,3.26c1.79,2.89,7.69,4.63,8.44,4.17.52-.34,1.07-.61,1.63-1,5.62-4.15,3.06-10.8-.8-14.09-1.8-1.56-3.83-3.15-6.35-2.1Z" transform="translate(2.5 -1432.48)" style="fill:#1e4f95"/><path d="M919.22,1475.48h0c-1.49-1.31-4.26-5.37-1-6.71a6.54,6.54,0,0,1,2.11-.22,13.47,13.47,0,0,1,2.24,1.52c.09,0-.4-.67-.36-.67V1469h.42c.47.3,1,.51,1.41.83,1.07.81,4.57,4.18,3.51,6A3.36,3.36,0,0,1,926,1477a7.54,7.54,0,0,1-2.44.94c-.55-.23-1.12-.46-1.67-.67a11.15,11.15,0,0,1-2.69-1.76m-.57-10.67a7.7,7.7,0,0,0-4,6.17,12.41,12.41,0,0,0,.39,3.32,8.06,8.06,0,0,0,1,3c2,2.59,4.12,3.36,6.93,4.3a3.7,3.7,0,0,0,2.16-1c.53-.36,1.1-.67,1.67-1.07,5.76-4.34,2.79-10.41-1.42-13.25-1.93-1.3-4.14-2.66-6.75-1.48Z" transform="translate(2.5 -1432.48)" style="fill:#1e4f95"/><path d="M953.89,1503.7l-3.11,6h-4.13l14.15-27.4,8.84,27.4h-4l-1.86-6Zm1.65-3.28h7.22l-2.75-9.09Z" transform="translate(2.5 -1432.48)" style="fill:#1e4f95"/><path d="M990.2,1487.4l-2.53,2.42c-1.2-1.78-2.59-2.68-4.15-2.68a3.89,3.89,0,0,0-2.79,1,3.42,3.42,0,0,0-1.12,2.61,3.28,3.28,0,0,0,.8,2.2,8,8,0,0,0,1.12,1,20.83,20.83,0,0,0,1.85,1.2,14.6,14.6,0,0,1,4.4,3.49,6.91,6.91,0,0,1,1.13,4.12,7,7,0,0,1-2.19,5.37,7.86,7.86,0,0,1-5.68,2,8.9,8.9,0,0,1-4.85-1.24,8.13,8.13,0,0,1-1.86-1.6,14.52,14.52,0,0,1-1.65-2.39l2.88-2a8.69,8.69,0,0,0,2.3,2.85,5.15,5.15,0,0,0,2.93.78,4.46,4.46,0,0,0,3.15-1,4,4,0,0,0,1.13-3,3.26,3.26,0,0,0-.83-2.27,7.44,7.44,0,0,0-1.23-1.08c-.55-.4-1.24-.85-2.08-1.34a13.78,13.78,0,0,1-4-3.25,6.53,6.53,0,0,1-1.09-3.86,6.76,6.76,0,0,1,2.15-5.13,7.61,7.61,0,0,1,5.44-2.06,7.35,7.35,0,0,1,3.64.86A11.18,11.18,0,0,1,990.2,1487.4Z" transform="translate(2.5 -1432.48)" style="fill:#1e4f95"/><path d="M1009.76,1484.15l-.43,3.53h-9.39l-.81,6.63h9.39l-.4,3.26h-9.4l-1.06,8.61h9.4l-.45,3.53H993.44l3.14-25.56Z" transform="translate(2.5 -1432.48)" style="fill:#1e4f95"/><path d="M1015.58,1484.15h5.19a9.76,9.76,0,0,1,5.15,1.13,6.19,6.19,0,0,1,2.29,2.57,8.11,8.11,0,0,1,.83,3.59,7.93,7.93,0,0,1-1.54,4.84c-1.53,2.06-3.93,3.1-7.22,3.1h-2.79l-1.28,10.36h-3.79Zm3.36,3.53-1,8.33h2.47a5,5,0,0,0,3.59-1.2,4.58,4.58,0,0,0,1.24-3.47q0-3.66-4.69-3.66Z" transform="translate(2.5 -1432.48)" style="fill:#1e4f95"/><path d="M1042.43,1487.66l-2.71,22.06h-3.8l2.72-22.06h-6.12l.43-3.52h15.76l-.43,3.52Z" transform="translate(2.5 -1432.48)" style="fill:#1e4f95"/><path d="M936.14,1528.64l5.36-9.22,2.28,9.22h-.88l-.67-3H938.6l-1.65,3Zm2.85-3.7h3.09l-.87-3.89Z" transform="translate(2.5 -1432.48)" style="fill:#1e4f95"/><path d="M944.53,1527.68l.77-.41a1.14,1.14,0,0,0,.4.67,1.45,1.45,0,0,0,1.58,0,1,1,0,0,0,.38-.67q.11-.62-.93-1l-.17-.07a2.81,2.81,0,0,1-1.08-.67,1.07,1.07,0,0,1-.2-.88,1.75,1.75,0,0,1,.67-1.13,2,2,0,0,1,1.34-.44,1.77,1.77,0,0,1,1.07.29,1.34,1.34,0,0,1,.54.81l-.74.38a.86.86,0,0,0-.34-.58,1.08,1.08,0,0,0-.67-.2,1,1,0,0,0-.67.22.87.87,0,0,0-.34.57.62.62,0,0,0,.16.55,2.64,2.64,0,0,0,1,.47,2.33,2.33,0,0,1,1.09.67,1.38,1.38,0,0,1,.15,1,1.76,1.76,0,0,1-.72,1.18,2.42,2.42,0,0,1-1.49.44,1.9,1.9,0,0,1-1.13-.31A1.39,1.39,0,0,1,944.53,1527.68Z" transform="translate(2.5 -1432.48)" style="fill:#1e4f95"/><path d="M949.32,1527.68l.78-.41a1.14,1.14,0,0,0,.4.67,1.43,1.43,0,0,0,1.57,0,1,1,0,0,0,.39-.67c.06-.41-.25-.76-.94-1l-.16-.07a2.81,2.81,0,0,1-1.08-.67,1,1,0,0,1-.2-.88,1.67,1.67,0,0,1,.67-1.13,2,2,0,0,1,1.34-.44,1.74,1.74,0,0,1,1.06.29,1.31,1.31,0,0,1,.55.81l-.75.38a.88.88,0,0,0-.33-.58,1.08,1.08,0,0,0-.67-.2,1,1,0,0,0-.67.22.89.89,0,0,0-.35.57.6.6,0,0,0,.17.55,2.57,2.57,0,0,0,.95.47,2.3,2.3,0,0,1,1.08.67,1.33,1.33,0,0,1,.15,1,1.76,1.76,0,0,1-.72,1.18,2.37,2.37,0,0,1-1.48.44,1.88,1.88,0,0,1-1.13-.31A1.44,1.44,0,0,1,949.32,1527.68Z" transform="translate(2.5 -1432.48)" style="fill:#1e4f95"/><path d="M956.86,1528.87a2.47,2.47,0,0,1-1.07-.22,2.44,2.44,0,0,1-.85-.68,2.15,2.15,0,0,1-.47-.91,2.65,2.65,0,0,1,0-1.12,3.13,3.13,0,0,1,.39-1.11,3.63,3.63,0,0,1,1.81-1.56,3.22,3.22,0,0,1,1.14-.23,2.78,2.78,0,0,1,1.1.23,2.33,2.33,0,0,1,1.34,1.57,2.72,2.72,0,0,1,0,1.1,3.36,3.36,0,0,1-.4,1.11,3.48,3.48,0,0,1-.78.93,3.63,3.63,0,0,1-1.07.67A3.1,3.1,0,0,1,956.86,1528.87Zm.13-.67a2.32,2.32,0,0,0,1.6-.67,2.55,2.55,0,0,0,.87-1.57,1.92,1.92,0,0,0-.36-1.57,1.67,1.67,0,0,0-1.4-.64,2.31,2.31,0,0,0-1.6.64,2.6,2.6,0,0,0-.87,1.57,1.92,1.92,0,0,0,.37,1.57,1.67,1.67,0,0,0,1.39.65Z" transform="translate(2.5 -1432.48)" style="fill:#1e4f95"/><path d="M966.22,1524.25a2.11,2.11,0,0,0-.74-.39,2.7,2.7,0,0,0-.85-.13,2.36,2.36,0,0,0-1.69.67,2.8,2.8,0,0,0-.87,1.7,1.87,1.87,0,0,0,.37,1.56,1.83,1.83,0,0,0,1.47.61,3.1,3.1,0,0,0,.91-.15,4.9,4.9,0,0,0,.95-.46l-.12.76a3.4,3.4,0,0,1-.92.34,4.54,4.54,0,0,1-1,.11,2.27,2.27,0,0,1-1.9-.81,2.49,2.49,0,0,1-.46-2.06,3.48,3.48,0,0,1,1.16-2.14,3.33,3.33,0,0,1,2.27-.82,4.58,4.58,0,0,1,.9.09,3.13,3.13,0,0,1,.72.27Z" transform="translate(2.5 -1432.48)" style="fill:#1e4f95"/><path d="M966.85,1528.64l.85-5.37h.77l-.85,5.37Zm1-7.47a.66.66,0,0,1,.67-.57.47.47,0,0,1,.38.16.47.47,0,0,1,.11.41.73.73,0,0,1-.23.41.72.72,0,0,1-.44.16.47.47,0,0,1-.49-.57Z" transform="translate(2.5 -1432.48)" style="fill:#1e4f95"/><path d="M973.54,1528.64l.16-1a2.7,2.7,0,0,1-.9.91,2.34,2.34,0,0,1-1.18.31,2,2,0,0,1-1.74-.79,2.69,2.69,0,0,1-.38-2.1,3.68,3.68,0,0,1,1-2.11,2.68,2.68,0,0,1,1.93-.82,2,2,0,0,1,1.14.31,1.56,1.56,0,0,1,.63.88l.15-1h.75l-.85,5.37Zm-3.19-2.63a2.18,2.18,0,0,0,.21,1.6,1.41,1.41,0,0,0,1.26.57,1.91,1.91,0,0,0,1.43-.62,3,3,0,0,0,.76-1.69,2.08,2.08,0,0,0-.24-1.56,1.39,1.39,0,0,0-1.24-.56,1.9,1.9,0,0,0-1.42.6A3,3,0,0,0,970.35,1526Z" transform="translate(2.5 -1432.48)" style="fill:#1e4f95"/><path d="M977.12,1523.9h-1l.1-.64h1l.35-2.21h.73l-.35,2.21H979l-.1.64h-1.08l-.75,4.74h-.71Z" transform="translate(2.5 -1432.48)" style="fill:#1e4f95"/><path d="M979.27,1528.64l.85-5.37h.77l-.85,5.37Zm1-7.47a.67.67,0,0,1,.67-.57.45.45,0,0,1,.38.16.47.47,0,0,1,.11.41.68.68,0,0,1-.23.41.7.7,0,0,1-.44.16.47.47,0,0,1-.49-.45.25.25,0,0,1,0-.12Z" transform="translate(2.5 -1432.48)" style="fill:#1e4f95"/><path d="M984.33,1528.87a2.33,2.33,0,0,1-1.91-.9,2.11,2.11,0,0,1-.48-.91,2.65,2.65,0,0,1,0-1.12,3.13,3.13,0,0,1,.39-1.11,3.63,3.63,0,0,1,1.81-1.56,3.22,3.22,0,0,1,1.14-.23,2.78,2.78,0,0,1,1.1.23,2.33,2.33,0,0,1,1.34,1.57,2.72,2.72,0,0,1,0,1.1,3.36,3.36,0,0,1-.4,1.11,4,4,0,0,1-1.85,1.6A3.07,3.07,0,0,1,984.33,1528.87Zm.14-.67a2.34,2.34,0,0,0,1.6-.67,2.55,2.55,0,0,0,.87-1.57,2,2,0,0,0-.36-1.57,1.68,1.68,0,0,0-1.41-.64,2.31,2.31,0,0,0-1.59.64,2.55,2.55,0,0,0-.87,1.57,2,2,0,0,0,.36,1.57,1.71,1.71,0,0,0,1.37.65Z" transform="translate(2.5 -1432.48)" style="fill:#1e4f95"/><path d="M988.77,1528.64l.85-5.37h.71l-.13.83a2.85,2.85,0,0,1,.92-.77,2.5,2.5,0,0,1,1.14-.25,1.65,1.65,0,0,1,1.34.51,1.68,1.68,0,0,1,.28,1.41l-.58,3.65h-.75l.53-3.31a1.67,1.67,0,0,0-.15-1.2,1.1,1.1,0,0,0-1-.38,1.75,1.75,0,0,0-1.34.5,2.91,2.91,0,0,0-.67,1.59l-.45,2.8Z" transform="translate(2.5 -1432.48)" style="fill:#1e4f95"/><path d="M998.48,1527.14l.75-.37a1.55,1.55,0,0,0,.51,1,1.57,1.57,0,0,0,1.08.36,2,2,0,0,0,1.4-.5,2.23,2.23,0,0,0,.67-1.37,1.54,1.54,0,0,0-.15-1.07,3.4,3.4,0,0,0-1.21-1A4.89,4.89,0,0,1,1000,1523a1.77,1.77,0,0,1-.23-1.29,2.36,2.36,0,0,1,.88-1.54,2.67,2.67,0,0,1,1.75-.59,2,2,0,0,1,1.12.28,1.73,1.73,0,0,1,.67.84l-.67.38a1.06,1.06,0,0,0-.46-.58,1.41,1.41,0,0,0-.8-.21,1.65,1.65,0,0,0-1.67,1.45c-.1.62.32,1.2,1.26,1.73l.39.22a3.57,3.57,0,0,1,1.34,1.19,2.29,2.29,0,0,1,.15,1.44,3,3,0,0,1-1,1.89,3,3,0,0,1-2,.67,2.09,2.09,0,0,1-2.19-1.72Z" transform="translate(2.5 -1432.48)" style="fill:#1e4f95"/><path d="M1009.11,1528.64l.15-1a2.58,2.58,0,0,1-.89.91,2.35,2.35,0,0,1-1.19.31,2,2,0,0,1-1.73-.79,2.69,2.69,0,0,1-.38-2.1,3.67,3.67,0,0,1,1-2.11,2.72,2.72,0,0,1,1.93-.82,2,2,0,0,1,1.15.31,1.61,1.61,0,0,1,.63.88l.15-1h.74l-.85,5.37Zm-3.21-2.63a2.23,2.23,0,0,0,.22,1.6,1.39,1.39,0,0,0,1.25.57,1.91,1.91,0,0,0,1.44-.62,3,3,0,0,0,.75-1.69,2.08,2.08,0,0,0-.24-1.56,1.37,1.37,0,0,0-1.23-.56,1.93,1.93,0,0,0-1.43.6A3,3,0,0,0,1005.9,1526Z" transform="translate(2.5 -1432.48)" style="fill:#1e4f95"/><path d="M1011.69,1528.64l.85-5.37h.74l-.13.83a2.75,2.75,0,0,1,.92-.77,2.5,2.5,0,0,1,1.14-.25,1.65,1.65,0,0,1,1.34.51,1.68,1.68,0,0,1,.28,1.41l-.58,3.65h-.76l.53-3.31a1.67,1.67,0,0,0-.15-1.2,1.1,1.1,0,0,0-1-.38,1.76,1.76,0,0,0-1.34.5,2.91,2.91,0,0,0-.67,1.59l-.44,2.8Z" transform="translate(2.5 -1432.48)" style="fill:#1e4f95"/><path d="M1018.94,1523.9h-1l.1-.64h1l.35-2.21h.73l-.35,2.21h1.08l-.1.64h-1.08l-.75,4.74h-.73Z" transform="translate(2.5 -1432.48)" style="fill:#1e4f95"/><path d="M1026,1526h-4.28a2.4,2.4,0,0,0,.26,1.64,1.39,1.39,0,0,0,1.23.59,2,2,0,0,0,1.09-.33,2.88,2.88,0,0,0,.9-1l.62.38a3.75,3.75,0,0,1-1.17,1.21,2.89,2.89,0,0,1-1.52.38,2.08,2.08,0,0,1-1.78-.79,2.57,2.57,0,0,1-.4-2.07,3.56,3.56,0,0,1,1.06-2.13,2.85,2.85,0,0,1,2-.82,2,2,0,0,1,1.67.76,2.55,2.55,0,0,1,.35,2Zm-.79-.64a1.29,1.29,0,0,0-1-1.53,1.36,1.36,0,0,0-.45,0,2,2,0,0,0-1.2.42,2.15,2.15,0,0,0-.71,1.13Zm-2-2.94,1.63-2.12h1l-2.05,2.12Z" transform="translate(2.5 -1432.48)" style="fill:#1e4f95"/><path d="M1030.86,1528.64l1.41-8.88h4.39l-.12.76H1033l-.44,2.78h3.58l-.12.76h-3.59l-.6,3.82h3.58l-.12.76Zm2.91-9.75,1.62-2.12h1l-2.05,2.12Z" transform="translate(2.5 -1432.48)" style="fill:#1e4f95"/><path d="M1040.82,1528.64l.16-1a2.59,2.59,0,0,1-.89.91,2.22,2.22,0,0,1-1.18.31,2,2,0,0,1-1.73-.79,2.69,2.69,0,0,1-.38-2.1,3.73,3.73,0,0,1,1-2.11,2.72,2.72,0,0,1,1.94-.82,2.07,2.07,0,0,1,1.13.31,1.59,1.59,0,0,1,.62.88l.79-5h.76l-1.49,9.4Zm-3.19-2.63a2.23,2.23,0,0,0,.22,1.6,1.39,1.39,0,0,0,1.25.57,1.91,1.91,0,0,0,1.42-.62,3,3,0,0,0,.75-1.69,2.08,2.08,0,0,0-.23-1.56,1.37,1.37,0,0,0-1.23-.56,1.93,1.93,0,0,0-1.43.6,3,3,0,0,0-.75,1.66Z" transform="translate(2.5 -1432.48)" style="fill:#1e4f95"/><path d="M1045,1523.26l-.42,2.68a2.92,2.92,0,0,0,.08,1.73,1.13,1.13,0,0,0,1.1.51,1.58,1.58,0,0,0,1.26-.51,3.6,3.6,0,0,0,.63-1.73l.42-2.68h.74l-.49,3.06a3.22,3.22,0,0,1-.87,1.9,2.45,2.45,0,0,1-1.8.67,1.83,1.83,0,0,1-1.6-.67,2.52,2.52,0,0,1-.28-1.9l.48-3.06Z" transform="translate(2.5 -1432.48)" style="fill:#1e4f95"/><path d="M1054.69,1524.25a2.11,2.11,0,0,0-.74-.39,2.7,2.7,0,0,0-.85-.13,2.4,2.4,0,0,0-1.7.67,2.84,2.84,0,0,0-.86,1.7,1.87,1.87,0,0,0,.37,1.56,1.82,1.82,0,0,0,1.47.61,3.1,3.1,0,0,0,.91-.15,4.55,4.55,0,0,0,.94-.46l-.12.82a4,4,0,0,1-.93.33,4.55,4.55,0,0,1-1,.12,2.32,2.32,0,0,1-1.89-.81,2.52,2.52,0,0,1-.46-2.07,3.41,3.41,0,0,1,1.16-2.14,3.36,3.36,0,0,1,2.27-.82,3.8,3.8,0,0,1,.89.1,2.47,2.47,0,0,1,.72.26Z" transform="translate(2.5 -1432.48)" style="fill:#1e4f95"/><path d="M1059.37,1528.64l.15-1a2.67,2.67,0,0,1-.89.91,2.35,2.35,0,0,1-1.19.31,2,2,0,0,1-1.74-.79,2.69,2.69,0,0,1-.37-2.1,3.67,3.67,0,0,1,1-2.11,2.7,2.7,0,0,1,1.93-.82,2,2,0,0,1,1.14.3,1.51,1.51,0,0,1,.63.89l.16-1h.74l-.85,5.36Zm-3.21-2.63a2.23,2.23,0,0,0,.21,1.6,1.42,1.42,0,0,0,1.26.57,1.89,1.89,0,0,0,1.43-.62,3,3,0,0,0,.76-1.69,2.08,2.08,0,0,0-.24-1.56,1.38,1.38,0,0,0-1.23-.56,1.93,1.93,0,0,0-1.43.6A3,3,0,0,0,1056.16,1526Z" transform="translate(2.5 -1432.48)" style="fill:#1e4f95"/><path d="M1062.92,1523.9h-1l.1-.64h1l.35-2.21h.73l-.35,2.21h1.08l-.1.64h-1.08l-.73,4.74h-.73Z" transform="translate(2.5 -1432.48)" style="fill:#1e4f95"/><path d="M1065.1,1528.64l.85-5.37h.77l-.85,5.37Zm1-7.47a.68.68,0,0,1,.68-.57.47.47,0,0,1,.38.16.54.54,0,0,1,.11.41.73.73,0,0,1-.23.41.73.73,0,0,1-.45.16.48.48,0,0,1-.49-.45.49.49,0,0,1,0-.12Z" transform="translate(2.5 -1432.48)" style="fill:#1e4f95"/><path d="M1070.16,1528.87a2.47,2.47,0,0,1-1.07-.22,2.44,2.44,0,0,1-.85-.68,2.09,2.09,0,0,1-.47-.91,2.82,2.82,0,0,1,0-1.12,3.15,3.15,0,0,1,.4-1.11,3.63,3.63,0,0,1,1.81-1.56,3.19,3.19,0,0,1,1.15-.23,2.77,2.77,0,0,1,1.09.23,2.33,2.33,0,0,1,1.34,1.57,2.72,2.72,0,0,1,0,1.1,3.15,3.15,0,0,1-.4,1.11,3.31,3.31,0,0,1-.78.93,3.51,3.51,0,0,1-1.07.67A3.07,3.07,0,0,1,1070.16,1528.87Zm.13-.67a2.37,2.37,0,0,0,1.61-.67,2.59,2.59,0,0,0,.86-1.57,1.88,1.88,0,0,0-.36-1.57,1.69,1.69,0,0,0-1.43-.66,2.31,2.31,0,0,0-1.59.64,2.55,2.55,0,0,0-.87,1.57,1.92,1.92,0,0,0,.36,1.57,1.7,1.7,0,0,0,1.43.67Z" transform="translate(2.5 -1432.48)" style="fill:#1e4f95"/><path d="M1074.59,1528.64l.86-5.37h.71l-.14.83a2.89,2.89,0,0,1,.93-.77,2.46,2.46,0,0,1,1.13-.25,1.64,1.64,0,0,1,1.34.51,1.69,1.69,0,0,1,.29,1.41l-.58,3.65h-.78l.52-3.31a1.62,1.62,0,0,0-.14-1.2,1.1,1.1,0,0,0-1-.38,1.75,1.75,0,0,0-1.34.5,2.92,2.92,0,0,0-.68,1.59l-.44,2.8Z" transform="translate(2.5 -1432.48)" style="fill:#1e4f95"/><path d="M928.82,1539.2h-4.28a2.34,2.34,0,0,0,.27,1.64,1.34,1.34,0,0,0,1.22.59,2,2,0,0,0,1.09-.32,3,3,0,0,0,.9-1l.62.37a3.62,3.62,0,0,1-1.2,1.2,2.9,2.9,0,0,1-1.52.39,2.14,2.14,0,0,1-1.79-.8,2.65,2.65,0,0,1-.4-2.07,3.67,3.67,0,0,1,1.06-2.13,2.81,2.81,0,0,1,2-.81,1.9,1.9,0,0,1,1.67.75,2.51,2.51,0,0,1,.36,2Zm-.79-.63a1.28,1.28,0,0,0-1-1.53,1.14,1.14,0,0,0-.45,0,1.83,1.83,0,0,0-1.2.42,2.11,2.11,0,0,0-.71,1.13Z" transform="translate(2.5 -1432.48)" style="fill:#1e4f95"/><path d="M930.77,1537.15h-1l.1-.64h1l.35-2.21H932l-.35,2.21h1.08l-.1.64H931.5l-.73,4.69H930Z" transform="translate(2.5 -1432.48)" style="fill:#1e4f95"/><path d="M936.62,1541.84,938,1533h1.61a6,6,0,0,1,1.4.1,1.64,1.64,0,0,1,.73.34,1.56,1.56,0,0,1,.52.83,3.13,3.13,0,0,1-1,3,4,4,0,0,1-2.34.59h-.93l-.63,4Zm1.55-4.69h.55a4.1,4.1,0,0,0,2-.37,1.84,1.84,0,0,0,.71-1.31,2.24,2.24,0,0,0,0-.73,1.62,1.62,0,0,0-.25-.59,1,1,0,0,0-.59-.37,5.48,5.48,0,0,0-1.34-.11h-.55Z" transform="translate(2.5 -1432.48)" style="fill:#1e4f95"/><path d="M944,1537.57a4.3,4.3,0,0,1,1-1,1.78,1.78,0,0,1,1-.29h.32a1.71,1.71,0,0,1,.3.09l-.36.67-.24-.06h-.25a1.68,1.68,0,0,0-1.24.63,2.89,2.89,0,0,0-.73,1.57l-.41,2.64h-.75l.85-5.37h.75Z" transform="translate(2.5 -1432.48)" style="fill:#1e4f95"/><path d="M951.43,1539.2h-4.27a2.34,2.34,0,0,0,.26,1.64,1.35,1.35,0,0,0,1.22.59,2,2,0,0,0,1.09-.32,3,3,0,0,0,.9-1l.63.37a3.82,3.82,0,0,1-1.2,1.2,2.93,2.93,0,0,1-1.53.39,2.12,2.12,0,0,1-1.78-.8,2.57,2.57,0,0,1-.4-2.07,3.56,3.56,0,0,1,1.06-2.13,2.79,2.79,0,0,1,2-.81,1.91,1.91,0,0,1,1.67.75,2.55,2.55,0,0,1,.35,2Zm-.78-.63a1.28,1.28,0,0,0-1-1.53,1.1,1.1,0,0,0-.44,0,1.8,1.8,0,0,0-1.2.42,2.07,2.07,0,0,0-.72,1.13Zm-2-2.94,1.63-2.12h1l-2,2.12Z" transform="translate(2.5 -1432.48)" style="fill:#1e4f95"/><path d="M952.42,1536.47h.82l1,4.08,2.29-4.08h.83L954,1542.2Z" transform="translate(2.5 -1432.48)" style="fill:#1e4f95"/><path d="M962.51,1539.2h-4.28a2.39,2.39,0,0,0,.26,1.64,1.35,1.35,0,0,0,1.23.59,2,2,0,0,0,1.09-.32,3.09,3.09,0,0,0,.9-1l.62.37a3.62,3.62,0,0,1-1.2,1.2,2.9,2.9,0,0,1-1.52.39,2.14,2.14,0,0,1-1.79-.8,2.61,2.61,0,0,1-.4-2.07,3.62,3.62,0,0,1,1.06-2.13,2.81,2.81,0,0,1,2-.81,1.9,1.9,0,0,1,1.67.75,2.55,2.55,0,0,1,.36,2Zm-.79-.63a1.28,1.28,0,0,0-1-1.53,1.14,1.14,0,0,0-.45,0,1.81,1.81,0,0,0-1.2.42,2.11,2.11,0,0,0-.71,1.13Z" transform="translate(2.5 -1432.48)" style="fill:#1e4f95"/><path d="M963.58,1541.84l.85-5.37h.71l-.13.84a2.76,2.76,0,0,1,.92-.78,2.63,2.63,0,0,1,1.14-.25,1.65,1.65,0,0,1,1.34.51,1.69,1.69,0,0,1,.28,1.41l-.58,3.65h-.75l.52-3.31a1.64,1.64,0,0,0-.15-1.19,1.09,1.09,0,0,0-1-.39,1.76,1.76,0,0,0-1.34.5,2.91,2.91,0,0,0-.67,1.59l-.43,2.79Z" transform="translate(2.5 -1432.48)" style="fill:#1e4f95"/><path d="M970.82,1537.15h-1l.1-.64h1l.35-2.21H972l-.31,2.17h1.08l-.1.64h-1.08l-.78,4.73h-.73Z" transform="translate(2.5 -1432.48)" style="fill:#1e4f95"/><path d="M973,1541.84l.85-5.37h.77l-.85,5.37Zm1-7.47a.66.66,0,0,1,.67-.57.45.45,0,0,1,.38.17.45.45,0,0,1,.11.4.73.73,0,0,1-.23.41.7.7,0,0,1-.44.16.47.47,0,0,1-.49-.57Z" transform="translate(2.5 -1432.48)" style="fill:#1e4f95"/><path d="M978,1542.11a2.45,2.45,0,0,1-1.92-.9,2.12,2.12,0,0,1-.47-.92,2.76,2.76,0,0,1,0-1.11,3.5,3.5,0,0,1,.4-1.12,3.63,3.63,0,0,1,1.81-1.56,3.17,3.17,0,0,1,1.14-.22,2.69,2.69,0,0,1,1.09.22,2.38,2.38,0,0,1,1.35,1.57,2.76,2.76,0,0,1,0,1.11,3.08,3.08,0,0,1-.39,1.1,3.72,3.72,0,0,1-.78.94,3.85,3.85,0,0,1-1.07.67A3.27,3.27,0,0,1,978,1542.11Zm.14-.67a2.34,2.34,0,0,0,1.6-.67,2.63,2.63,0,0,0,.87-1.57,1.94,1.94,0,0,0-.37-1.58,1.72,1.72,0,0,0-1.4-.64,2.4,2.4,0,0,0-1.6.64,2.64,2.64,0,0,0-.86,1.58,1.93,1.93,0,0,0,.36,1.57,1.71,1.71,0,0,0,1.4.64Z" transform="translate(2.5 -1432.48)" style="fill:#1e4f95"/><path d="M982.48,1541.84l.85-5.37H984l-.13.84a2.66,2.66,0,0,1,.92-.78,2.59,2.59,0,0,1,1.13-.25,1.66,1.66,0,0,1,1.35.51,1.69,1.69,0,0,1,.28,1.41l-.58,3.65h-.76l.53-3.31a1.64,1.64,0,0,0-.15-1.19,1.09,1.09,0,0,0-1-.39,1.75,1.75,0,0,0-1.34.5,2.91,2.91,0,0,0-.67,1.59l-.45,2.8Z" transform="translate(2.5 -1432.48)" style="fill:#1e4f95"/><path d="M992.06,1540.92l.77-.41a1.16,1.16,0,0,0,.41.67,1.21,1.21,0,0,0,.78.22,1.25,1.25,0,0,0,.79-.24,1,1,0,0,0,.39-.67c.06-.41-.25-.76-.94-1l-.16-.08a2.59,2.59,0,0,1-1.08-.67,1.07,1.07,0,0,1-.21-.88,1.73,1.73,0,0,1,.67-1.12,2.13,2.13,0,0,1,1.35-.45,1.88,1.88,0,0,1,1.06.29,1.35,1.35,0,0,1,.55.81l-.75.39a.9.9,0,0,0-.33-.59,1.17,1.17,0,0,0-.67-.2,1.12,1.12,0,0,0-.68.23.89.89,0,0,0-.34.56.61.61,0,0,0,.16.55,2.89,2.89,0,0,0,1,.48,2.23,2.23,0,0,1,1.08.67,1.32,1.32,0,0,1,.15,1,1.78,1.78,0,0,1-.72,1.18,2.46,2.46,0,0,1-1.49.44,1.85,1.85,0,0,1-1.12-.31A1.4,1.4,0,0,1,992.06,1540.92Z" transform="translate(2.5 -1432.48)" style="fill:#1e4f95"/><path d="M998.71,1536.47l-.42,2.69a3,3,0,0,0,.07,1.73,1.14,1.14,0,0,0,1.1.5,1.57,1.57,0,0,0,1.26-.51,3.46,3.46,0,0,0,.63-1.72l.43-2.69h.77l-.49,3.07a3.24,3.24,0,0,1-.87,1.9,2.54,2.54,0,0,1-1.8.67,1.88,1.88,0,0,1-1.6-.67,2.53,2.53,0,0,1-.28-1.9l.48-3.07Z" transform="translate(2.5 -1432.48)" style="fill:#1e4f95"/><path d="M1004.91,1537.57a4.06,4.06,0,0,1,1-1,1.79,1.79,0,0,1,1-.29h.31a1.58,1.58,0,0,1,.31.09l-.35.67-.25-.06h-.24a1.68,1.68,0,0,0-1.25.63,3,3,0,0,0-.73,1.57l-.43,2.64h-.74l.85-5.37h.75Z" transform="translate(2.5 -1432.48)" style="fill:#1e4f95"/><path d="M1011.78,1541.84H1011l1.49-9.39h.78Z" transform="translate(2.5 -1432.48)" style="fill:#1e4f95"/><path d="M1018.79,1539.2h-4.27a2.29,2.29,0,0,0,.26,1.64,1.34,1.34,0,0,0,1.22.59,2,2,0,0,0,1.09-.32,3,3,0,0,0,.9-1l.62.37a3.62,3.62,0,0,1-1.2,1.2,2.9,2.9,0,0,1-1.52.39,2.12,2.12,0,0,1-1.78-.8,2.62,2.62,0,0,1-.41-2.07,3.67,3.67,0,0,1,1.06-2.13,2.82,2.82,0,0,1,2-.81,1.92,1.92,0,0,1,1.67.75,2.55,2.55,0,0,1,.35,2Zm-.79-.63a1.28,1.28,0,0,0-1-1.53,1.14,1.14,0,0,0-.45,0,1.83,1.83,0,0,0-1.2.42,2.11,2.11,0,0,0-.71,1.13Z" transform="translate(2.5 -1432.48)" style="fill:#1e4f95"/><path d="M1019.46,1540.92l.77-.41a1.14,1.14,0,0,0,.4.67,1.23,1.23,0,0,0,.79.22,1.19,1.19,0,0,0,.79-.24.94.94,0,0,0,.38-.67c.07-.41-.24-.76-.93-1l-.17-.08a2.59,2.59,0,0,1-1.08-.67,1.1,1.1,0,0,1-.2-.88,1.73,1.73,0,0,1,.67-1.12,2.11,2.11,0,0,1,1.34-.45,1.92,1.92,0,0,1,1.07.29,1.3,1.3,0,0,1,.54.81l-.74.39a.88.88,0,0,0-.34-.59,1.13,1.13,0,0,0-.67-.2,1.09,1.09,0,0,0-.67.23.89.89,0,0,0-.34.56.61.61,0,0,0,.16.55,2.84,2.84,0,0,0,.95.48,2.26,2.26,0,0,1,1.09.67,1.31,1.31,0,0,1,.07,1.06,1.73,1.73,0,0,1-.71,1.18,2.42,2.42,0,0,1-1.49.44,1.88,1.88,0,0,1-1.13-.31A1.41,1.41,0,0,1,1019.46,1540.92Z" transform="translate(2.5 -1432.48)" style="fill:#1e4f95"/><path d="M1029.92,1541.84l1.29-8.12h-2.44l.12-.75h5.7l-.12.75H1032l-1.3,8.12Z" transform="translate(2.5 -1432.48)" style="fill:#1e4f95"/><path d="M1038.66,1539.2h-4.28a2.34,2.34,0,0,0,.27,1.64,1.34,1.34,0,0,0,1.22.59,2,2,0,0,0,1.09-.32,3,3,0,0,0,.9-1l.62.37a3.62,3.62,0,0,1-1.2,1.2,2.9,2.9,0,0,1-1.52.39,2.12,2.12,0,0,1-1.78-.8,2.62,2.62,0,0,1-.41-2.07,3.67,3.67,0,0,1,1.06-2.13,2.82,2.82,0,0,1,2-.81,1.92,1.92,0,0,1,1.67.75,2.55,2.55,0,0,1,.35,2Zm-.79-.63a1.28,1.28,0,0,0-1-1.53,1.14,1.14,0,0,0-.45,0,1.83,1.83,0,0,0-1.2.42,2.11,2.11,0,0,0-.71,1.13Z" transform="translate(2.5 -1432.48)" style="fill:#1e4f95"/><path d="M1041.15,1537.57a4.3,4.3,0,0,1,1-1,1.78,1.78,0,0,1,1-.29h.32a1.81,1.81,0,0,1,.31.09l-.36.67-.24-.06h-.25a1.7,1.7,0,0,0-1.25.63,3,3,0,0,0-.72,1.57l-.42,2.64h-.74l.85-5.37h.74Z" transform="translate(2.5 -1432.48)" style="fill:#1e4f95"/><path d="M1045.19,1537.57a4.06,4.06,0,0,1,1-1,1.78,1.78,0,0,1,1-.29h.32a1.81,1.81,0,0,1,.31.09l-.36.67-.24-.06h-.25a1.7,1.7,0,0,0-1.25.63,3,3,0,0,0-.72,1.57l-.42,2.64h-.74l.85-5.37h.75Z" transform="translate(2.5 -1432.48)" style="fill:#1e4f95"/><path d="M1047.81,1541.84l.86-5.37h.77l-.85,5.37Zm1-7.44a.68.68,0,0,1,.68-.57.52.52,0,0,1,.38.17.52.52,0,0,1,.11.4.7.7,0,0,1-.23.41.67.67,0,0,1-.45.16.46.46,0,0,1-.49-.44.53.53,0,0,1,0-.13Z" transform="translate(2.5 -1432.48)" style="fill:#1e4f95"/><path d="M1051.43,1537.15h-1l.11-.64h1l.35-2.21h.73l-.35,2.21h1.08l-.1.64h-1l-.77,4.69h-.73Z" transform="translate(2.5 -1432.48)" style="fill:#1e4f95"/><path d="M1055.84,1542.11a2.59,2.59,0,0,1-1.06-.23,2.53,2.53,0,0,1-.85-.67,2.14,2.14,0,0,1-.48-.92,2.6,2.6,0,0,1,0-1.11,3.25,3.25,0,0,1,.39-1.12,3.63,3.63,0,0,1,1.81-1.56,3.21,3.21,0,0,1,1.14-.22,2.77,2.77,0,0,1,1.1.22,2.37,2.37,0,0,1,1.34,1.57,2.77,2.77,0,0,1,0,1.11,3.31,3.31,0,0,1-.4,1.1,3.53,3.53,0,0,1-.78.94,3.71,3.71,0,0,1-1.07.67A3.27,3.27,0,0,1,1055.84,1542.11Zm.14-.67a2.34,2.34,0,0,0,1.6-.67,2.58,2.58,0,0,0,.87-1.57,2,2,0,0,0-.36-1.58,1.73,1.73,0,0,0-1.41-.64,2.35,2.35,0,0,0-1.59.64,2.61,2.61,0,0,0-.87,1.58,2,2,0,0,0,.36,1.57,1.72,1.72,0,0,0,1.4.64Z" transform="translate(2.5 -1432.48)" style="fill:#1e4f95"/><path d="M1060.29,1541.84l.85-5.37h.77l-.85,5.37Zm1-7.47a.66.66,0,0,1,.67-.57.45.45,0,0,1,.38.17.51.51,0,0,1,.11.4.73.73,0,0,1-.23.41.73.73,0,0,1-.45.16.48.48,0,0,1-.49-.45.49.49,0,0,1,0-.12Z" transform="translate(2.5 -1432.48)" style="fill:#1e4f95"/><path d="M1064.34,1537.57a4.06,4.06,0,0,1,1-1,1.79,1.79,0,0,1,1-.29h.31a1.58,1.58,0,0,1,.31.09l-.36.67-.24-.06h-.25a1.68,1.68,0,0,0-1.24.63,2.89,2.89,0,0,0-.73,1.57l-.41,2.64h-.75l.85-5.37h.75Z" transform="translate(2.5 -1432.48)" style="fill:#1e4f95"/><path d="M1071.8,1539.2h-4.27a2.39,2.39,0,0,0,.26,1.64,1.35,1.35,0,0,0,1.22.59,2,2,0,0,0,1.1-.32,3.09,3.09,0,0,0,.9-1l.62.37a3.62,3.62,0,0,1-1.2,1.2,2.92,2.92,0,0,1-1.52.39,2.14,2.14,0,0,1-1.79-.8,2.61,2.61,0,0,1-.4-2.07,3.62,3.62,0,0,1,1.06-2.13,2.81,2.81,0,0,1,2-.81,1.91,1.91,0,0,1,1.67.75,2.59,2.59,0,0,1,.36,2Zm-.78-.63a1.28,1.28,0,0,0-1-1.53,1.08,1.08,0,0,0-.44,0,1.81,1.81,0,0,0-1.2.42,2.11,2.11,0,0,0-.71,1.13Z" transform="translate(2.5 -1432.48)" style="fill:#1e4f95"/><path d="M1072.47,1540.92l.78-.41a1.14,1.14,0,0,0,.4.67,1.46,1.46,0,0,0,1.57,0,1,1,0,0,0,.39-.67c.06-.41-.25-.76-.94-1l-.16-.08a2.59,2.59,0,0,1-1.08-.67,1,1,0,0,1-.2-.88,1.65,1.65,0,0,1,.67-1.12,2.09,2.09,0,0,1,1.34-.45,1.88,1.88,0,0,1,1.06.29,1.31,1.31,0,0,1,.55.81l-.75.39a.9.9,0,0,0-.33-.59,1.15,1.15,0,0,0-.67-.2,1.07,1.07,0,0,0-.67.23.86.86,0,0,0-.35.56.59.59,0,0,0,.17.55,2.75,2.75,0,0,0,1,.48,2.18,2.18,0,0,1,1.08.67,1.32,1.32,0,0,1,.15,1,1.74,1.74,0,0,1-.72,1.18,2.43,2.43,0,0,1-1.48.44,1.88,1.88,0,0,1-1.13-.31A1.44,1.44,0,0,1,1072.47,1540.92Z" transform="translate(2.5 -1432.48)" style="fill:#1e4f95"/><path d="M927.7,1573.25a13.93,13.93,0,0,1-4.94.93A7.29,7.29,0,0,1,917,1572a7.59,7.59,0,0,1-1.77-5.12,10.29,10.29,0,0,1,10.64-10.59,8.93,8.93,0,0,1,4.13.81l-.7,1.82a8.37,8.37,0,0,0-3.69-.75,7.81,7.81,0,0,0-5.44,2.13,9.08,9.08,0,0,0-2.62,6.42c0,3.38,1.69,5.62,5.59,5.62a7,7,0,0,0,2.68-.5l1-5.22h-3.56l.34-1.77h5.67Z" transform="translate(2.5 -1432.48)" style="fill:#b3b3b3"/><path d="M930.93,1574l2.41-12.58h2.16L933.08,1574Zm2.8-16.09a1.43,1.43,0,0,1,1.43-1.46,1.25,1.25,0,0,1,1.28,1.35,1.43,1.43,0,0,1-1.46,1.46A1.25,1.25,0,0,1,933.73,1557.91Z" transform="translate(2.5 -1432.48)" style="fill:#b3b3b3"/><path d="M936.88,1574l1.53-8.11c.32-1.64.52-3.3.65-4.47H941c-.1.88-.21,1.76-.34,2.73h.08c.81-1.72,2.16-3,3.85-3a5.6,5.6,0,0,1,.6,0l-.42,2.13a3.75,3.75,0,0,0-.57,0c-1.87,0-3.54,2.26-4.08,5.2l-1,5.54Z" transform="translate(2.5 -1432.48)" style="fill:#b3b3b3"/><path d="M957.06,1566.38c0,3.88-2.76,7.91-7,7.91-3.15,0-4.92-2.34-4.92-5.18,0-4.13,2.89-8,7-8C955.55,1561.13,957.06,1563.7,957.06,1566.38Zm-9.65,2.65c0,2.06,1.12,3.54,3,3.54,2.55,0,4.48-3.28,4.48-6.21,0-1.46-.68-3.51-2.94-3.51C949.2,1562.85,947.38,1566.15,947.41,1569Z" transform="translate(2.5 -1432.48)" style="fill:#b3b3b3"/><path d="M958.56,1574l1.69-8.92c.29-1.4.45-2.62.6-3.66h1.93l-.32,2.47h.06a5.48,5.48,0,0,1,4.65-2.76c1.51,0,3.2.86,3.2,3.51a12.22,12.22,0,0,1-.24,2l-1.4,7.33h-2.16l1.38-7.25a8.74,8.74,0,0,0,.18-1.62c0-1.27-.49-2.21-2-2.21s-3.72,1.85-4.29,5l-1.15,6.11Z" transform="translate(2.5 -1432.48)" style="fill:#b3b3b3"/><path d="M985.84,1555.54,983.08,1570a30.31,30.31,0,0,0-.54,4h-2l.34-2.5h-.06a5.35,5.35,0,0,1-4.52,2.79c-2.44,0-3.77-2-3.77-4.58,0-4.47,3.33-8.58,7.78-8.58a5.67,5.67,0,0,1,2.23.44l1.12-6Zm-3.62,7.85a4,4,0,0,0-2.08-.52c-3,0-5.35,3.2-5.35,6.55,0,1.51.52,3.1,2.36,3.1,1.67,0,3.67-1.9,4.22-4.73Z" transform="translate(2.5 -1432.48)" style="fill:#b3b3b3"/><path d="M995.17,1573.27a8.61,8.61,0,0,1-4.16,1c-3.33,0-4.78-2.26-4.78-5,0-3.8,2.81-8.09,6.86-8.09,2.39,0,3.69,1.43,3.69,3.22,0,3.31-3.71,4.19-8.37,4.11a5.2,5.2,0,0,0,.26,2.39,2.87,2.87,0,0,0,2.81,1.69,7,7,0,0,0,3.38-.88Zm-2.39-10.45c-2,0-3.59,2-4.11,4,3.38,0,6-.42,6-2.37C994.7,1563.39,993.92,1562.82,992.78,1562.82Z" transform="translate(2.5 -1432.48)" style="fill:#b3b3b3"/></svg>