<?xml version="1.0" encoding="utf-8"?>
<!-- Generator: Adobe Illustrator 15.0.0, SVG Export Plug-In . SVG Version: 6.00 Build 0)  -->
<!DOCTYPE svg PUBLIC "-//W3C//DTD SVG 1.1//EN" "http://www.w3.org/Graphics/SVG/1.1/DTD/svg11.dtd">
<svg version="1.1" id="Layer_1" xmlns="http://www.w3.org/2000/svg" xmlns:xlink="http://www.w3.org/1999/xlink" x="0px" y="0px"
	 width="214.25px" height="132.25px" viewBox="0 0 214.25 132.25" enable-background="new 0 0 214.25 132.25" xml:space="preserve">
<g>
	<path fill="#726E67" d="M205.701,67.047c-0.222,0.042-0.465,0.046-0.71-0.004c-0.837-0.154-1.417-0.796-1.297-1.434
		c0.119-0.635,0.892-1.023,1.726-0.867c0.353,0.065,0.66,0.22,0.888,0.422c-0.474,0.029-0.888,0.375-0.979,0.863
		C205.254,66.422,205.41,66.807,205.701,67.047L205.701,67.047z M206.45,61.093c-1.255-0.712-2.432-1.863-4.612-3.462
		c-2.184-1.599-5.064-2.919-7.293-3.412s-4.938-3.456-9.157-4.581c-2.455-0.657-6.734-1.91-13.78-3.921
		c-6.086,0.791-13.587,1.397-22.746,1.522c-0.4,1.201-0.884,2.496-1.363,3.638c-0.717,1.704-1.418,3.101-2.227,4.118
		c8.433,4.876,17.041,7.307,17.946,7.67c-3.656,1.5,5.403,3.492,7.238,2.962c1.839-0.534,4.354,0.35,4.354,0.35
		c4.233,1.784,29.381,5.599,30.502,5.709c1.121,0.108,3.651,0.384,4.66,0.573c1.006,0.188,2.75,0.416,2.922-0.496
		c0.17-0.911-0.515-1.235-1.176-1.411c-0.662-0.175-2.125-1.64-2.125-1.64s0.035-0.191,1.24-0.264c1.203-0.071,2.04-1.354,1.516-2
		c0.713-0.361,0.818-1.186,0.242-1.294s-0.437,0.216-0.96-0.18C211.11,64.579,207.708,61.807,206.45,61.093L206.45,61.093z"/>
	<path fill="#233D58" d="M196.5,26.375c0.224-0.799,0.95-1.321,1.741-1.321c0.163,0,0.326,0.022,0.49,0.067
		c0.349,0.098,0.643,0.292,0.867,0.544c-0.025-0.008-0.047-0.017-0.072-0.023c-0.121-0.036-0.242-0.051-0.362-0.051
		c-0.581,0-1.118,0.385-1.283,0.975c-0.198,0.71,0.216,1.445,0.925,1.645c0.119,0.034,0.237,0.05,0.355,0.05
		c0.09,0,0.18-0.008,0.268-0.026c-0.328,0.28-0.746,0.442-1.188,0.442c-0.161,0-0.325-0.022-0.488-0.067
		C196.791,28.339,196.228,27.338,196.5,26.375L196.5,26.375z M69.08,22.092l1.677,1.682c0.811,0.812,1.854,1.97,3.062,3.312
		c1.639,1.82,4.914,5.458,6.32,6.496c0.256-0.004,0.568-0.011,0.918-0.019c1.343-0.031,3.371-0.076,5.696-0.076
		c9.268,0,15.54,0.715,19.175,2.185c4.188,1.695,9.756,4.327,13.69,6.216c0.154-0.007,0.32-0.009,0.502-0.009
		c2.671,0,8.208,0.614,11.562,1.153c1.167,0.188,2.073,0.367,2.496,0.509c-0.291,0.727-0.489,1.407-0.614,2.047
		c-0.834,4.25,1.588,6.627,2.029,7.867c0.139,0.398,0.517,0.542,0.985,0.542c1.216,0,3.056-0.96,3.056-0.96s0.752,0.418,1.877,0.418
		c0.109,0,0.226-0.004,0.346-0.013c0.142-0.01,0.299-0.107,0.466-0.264c1.373-1.298,3.439-7.083,3.981-9.335
		c6.551-0.024,12.278-0.295,17.269-0.71c5.21-0.435,9.613-1.029,13.304-1.667c0.11-0.02,0.221-0.038,0.33-0.058
		c7.887-1.382,12.457-2.948,14.668-3.527c3.234-0.607,14.552-3.537,17.28-4.851c2.727-1.312,3.029-3.03,2.527-3.738
		c-0.267-0.369-0.612-0.685-1-0.685c-0.352,0-0.738,0.264-1.125,0.988c-0.49,0.919-2.319,1.245-4.133,1.245
		c-1.177,0-2.347-0.137-3.141-0.335c1.109-2.526,4.143-3.839,6.163-4.143c2.021-0.304,2.323-2.426,1.11-3.235
		c-1.211-0.808-4.545-0.303-5.961-0.908c-1.414-0.607-8.386-2.831-9.498-2.983c-1.112-0.153-1.012-0.048-4.851-1.463
		c-10.46-3.816-25.82-4.462-34.362-4.462c-2.765,0-4.814,0.068-5.752,0.118c-1.112-1.82-6.064-8.387-9.197-12.426
		c-1.414,0.51-4.041,3.028-6.062,5.353c-2.022,2.324-4.244,3.637-7.275,5.962c1.717,0,4.344,1.817,5.759,2.93
		c-3.03,0-22.331,4.446-23.341,4.547c-0.027,0.003-0.056,0.005-0.083,0.005c-1.026,0-2.837-1.76-5.274-2.228
		c-0.213-0.041-0.422-0.059-0.625-0.059c-2.002,0-3.443,1.842-3.719,2.484c-0.23,0.54,0.511,1.122,1.255,1.122
		c0.231,0,0.462-0.056,0.665-0.188c0.437-0.282,0.988-0.402,1.498-0.402c0.699,0,1.316,0.227,1.432,0.579
		c-4.75,1.112-16.673,2.021-16.673,2.021C81.026,16.053,69.507,9.385,66.166,9.081c1.083,1.903,2.092,8.236,2.754,13.083
		L69.08,22.092L69.08,22.092z"/>
	<path fill="#4D97C0" d="M118.745,46.926c0.012,0,0.022,0,0.034,0c0.335,0.007,0.643,0.112,0.901,0.285
		c-0.023-0.001-0.047-0.002-0.069-0.004c-0.009,0-0.019-0.001-0.028-0.001c-0.667,0-1.216,0.536-1.229,1.207
		c-0.016,0.681,0.526,1.243,1.207,1.257c0.007,0,0.016,0,0.024,0c0.192,0,0.374-0.045,0.536-0.124
		c-0.303,0.437-0.807,0.723-1.374,0.723c-0.013,0-0.023,0-0.035,0c-0.923-0.019-1.656-0.783-1.638-1.707
		C117.095,47.653,117.838,46.926,118.745,46.926L118.745,46.926z M11.448,54.218c0.271,2.845-6.903,11.476-9.872,14.585
		c5.084-0.029,17.626-6.437,19.164-7.396c1.538-0.958,3.808-2.232,6.271-3.236c0.76-0.31,1.616-0.417,2.436-0.417
		c1.841,0,3.503,0.539,3.503,0.539s-0.536,0.385-1.14,0.902c-0.604,0.515-0.683,1.041,0.235,1.391
		c2.531,1.172,5.963,3.643,8.792,5.876c4.914-2.541,10.488-3.98,16.391-3.98c7.641,0,14.728,2.408,20.545,6.504
		c0.038-0.108,0.075-0.219,0.115-0.325c20.221-1.036,37.645-9.345,42.399-11.58c4.755-2.235,6.108-3.834,6.525-4.882
		c0.203-0.511-0.091-0.665-0.484-0.665c-0.412,0-0.932,0.171-1.093,0.281c-0.201,0.136-0.582,0.161-0.827,0.161
		c-0.137,0-0.229-0.006-0.229-0.006c3.046-2.666,0.606-3.862-1.226-4.691c-0.594-0.271-2.046-0.977-3.958-1.896
		c-0.554-0.267-1.145-0.55-1.766-0.849c-0.507-0.243-1.032-0.492-1.572-0.749c-3.55-1.684-7.713-3.607-11.013-4.943
		c-0.795-0.321-1.74-0.589-2.789-0.816c-1.41-0.302-3.006-0.528-4.686-0.692c-2.905-0.286-6.053-0.393-8.887-0.419
		c-0.521-0.006-1.033-0.008-1.529-0.008c-0.341,0-0.672,0.001-0.998,0.003c-2.986,0.017-5.321,0.1-6.139,0.1
		c-0.059,0-0.107,0-0.151-0.001c-1.601-0.032-6.743-6.083-9.855-9.471c-0.479-0.523-0.912-0.983-1.275-1.348
		c-0.202,0.092-0.387,0.244-0.562,0.433c-0.566,0.611-1.031,1.661-1.631,2.784c-0.437,0.818-0.944,1.669-1.62,2.409
		c-1.892,2.073-7.37,5.262-9.646,6.8c0.791,0.016,3.648,2.318,3.648,2.318s-16.068,4.554-24.701,7.017
		c-2.835,0.809-5.063,1.188-7.025,1.188c-4.017,0-6.926-1.588-11.657-4.347c-5.02-2.925-10.573-3.346-13.353-3.346
		C0.669,41.443,0,41.511,0,41.511C5.928,44.015,11.178,51.375,11.448,54.218L11.448,54.218z"/>
	<path fill="#AF9E64" d="M11.988,32.084c0.471-0.052,0.888,0.232,0.933,0.638c0.046,0.402-0.3,0.772-0.771,0.824
		c-0.472,0.051-0.888-0.234-0.933-0.637C11.173,32.505,11.518,32.136,11.988,32.084L11.988,32.084z M16.681,31.27
		c0.469-0.052,0.888,0.232,0.933,0.637c0.044,0.403-0.302,0.771-0.771,0.824c-0.472,0.052-0.889-0.232-0.934-0.636
		C15.864,31.692,16.209,31.32,16.681,31.27L16.681,31.27z M21.176,30.035c0.403-0.045,0.767,0.245,0.812,0.648
		c0.045,0.402-0.247,0.767-0.649,0.812c-0.403,0.045-0.767-0.246-0.811-0.649C20.481,30.441,20.772,30.078,21.176,30.035
		L21.176,30.035z M25.844,28.78c0.471-0.054,0.887,0.231,0.932,0.634c0.045,0.404-0.3,0.772-0.771,0.825
		c-0.472,0.051-0.888-0.232-0.933-0.636C25.028,29.199,25.372,28.831,25.844,28.78L25.844,28.78z M30.178,27.855
		c0.471-0.052,0.888,0.233,0.933,0.636c0.045,0.403-0.301,0.772-0.771,0.824c-0.47,0.052-0.889-0.231-0.933-0.635
		C29.362,28.276,29.707,27.907,30.178,27.855L30.178,27.855z M34.203,26.375c0.471-0.052,0.889,0.232,0.934,0.636
		c0.044,0.403-0.302,0.774-0.771,0.825c-0.471,0.053-0.89-0.232-0.934-0.637C33.388,26.796,33.732,26.428,34.203,26.375
		L34.203,26.375z M37.609,24.643c0.403-0.045,0.767,0.245,0.811,0.649c0.045,0.403-0.246,0.764-0.649,0.809
		c-0.404,0.045-0.766-0.245-0.811-0.648C36.915,25.051,37.205,24.688,37.609,24.643L37.609,24.643z M42.92,21.637
		c0.129-0.791,1-1.306,1.943-1.15c0.34,0.057,0.643,0.194,0.887,0.381c-0.023-0.004-0.046-0.01-0.07-0.015
		c-0.695-0.113-1.337,0.267-1.433,0.848c-0.096,0.584,0.39,1.15,1.084,1.264c0.206,0.033,0.407,0.024,0.591-0.023
		c-0.37,0.338-0.936,0.508-1.53,0.41C43.447,23.195,42.788,22.428,42.92,21.637L42.92,21.637z M18.453,33.961
		c1.495,0.264,4.241,0.769,9.857,0.149c5.615-0.622,12.229-3.263,13.455-3.796c1.225-0.533,2.721-1.37,3.506-1.458
		c0.785-0.085,0.895-0.139,2.583,0.266c0.753,0.18,3.159,0.261,5.555-0.186c2.396-0.448,6.113-2.206,7.979-3.572
		c1.865-1.369,1.807-3.562,1.807-3.562c0.189-2.711-4.81-3.135-5.439-3.31c-0.631-0.175-0.858-1.127-3.071-1.25
		c-0.55-0.55-5.769-2.418-9.203-3.628c-3.435-1.209-15.565-0.356-15.565-0.356c-1.912,0.395-20.745,2.538-26.683,3.011
		c-0.618,0.049-1.191,0.062-1.739,0.054v18.389C5.797,34.782,17.082,33.722,18.453,33.961L18.453,33.961z"/>
	<path fill="#233D58" d="M82.738,96.137c-0.06,1.152-0.092,2.445-0.092,3.886c0,0.418,0.003,0.821,0.008,1.217
		c0.113-0.979,0.179-1.971,0.179-2.978C82.833,97.545,82.796,96.838,82.738,96.137L82.738,96.137z"/>
	<polygon fill="#233D58" points="1.2,84.01 1.2,116.034 21.979,116.034 21.979,110.457 7.451,110.457 7.451,84.01 1.2,84.01 	"/>
	<path fill="#233D58" d="M124.518,98.041h-5.892v-8.455h5.892c2.744,0,4.544,1.754,4.544,4.229
		C129.062,96.289,127.262,98.041,124.518,98.041L124.518,98.041z M135.312,93.815c0-5.353-3.869-9.806-10.39-9.806h-12.55v32.024
		h6.253v-12.776h4.496l6.253,12.776h7.242l-7.152-13.809C132.569,101.101,135.312,98.313,135.312,93.815L135.312,93.815z"/>
	<path fill="#233D58" d="M148.488,105.104l4.049-11.649l3.913,11.649H148.488L148.488,105.104z M149.929,84.01l-11.65,32.024h6.523
		l1.933-5.666h11.38l1.888,5.666h6.521L154.829,84.01H149.929L149.929,84.01z"/>
	<polygon fill="#233D58" points="185.009,101.325 176.641,84.01 170.48,84.01 170.48,116.034 176.731,116.034 176.731,97.368 
		182.894,109.512 187.122,109.512 193.237,97.368 193.237,116.034 199.49,116.034 199.49,84.01 193.327,84.01 185.009,101.325 	"/>
	<polygon fill="#233D58" points="206.953,84.01 206.953,116.034 213.205,116.034 213.205,84.01 206.953,84.01 	"/>
	<path fill="#233D58" d="M84.261,116.03c-0.301-0.26-0.597-0.53-0.884-0.817c-1.578-1.578-2.672-3.416-3.271-5.47
		c-4.217,8.365-12.885,14.123-22.877,14.123c-14.117,0-25.604-11.487-25.604-25.604c0-14.118,11.486-25.603,25.604-25.603
		c3.17,0,6.206,0.582,9.009,1.638c0.691,0.263,1.368,0.549,2.028,0.865c1.502,0.721,2.926,1.584,4.248,2.571
		c0.473,0.353,0.927,0.726,1.373,1.108c3.001,2.578,5.402,5.832,6.958,9.531c0.621-1.287,1.462-2.472,2.532-3.543
		c0.732-0.732,1.509-1.377,2.328-1.929c-1.571-2.903-3.575-5.537-5.921-7.821c-0.474-0.46-0.96-0.906-1.459-1.337
		c-0.485-0.418-0.983-0.821-1.493-1.211c-5.443-4.156-12.239-6.631-19.604-6.631c-0.176,0-0.352,0.004-0.526,0.005
		c-1.309,0.021-2.599,0.12-3.864,0.293c-3.202,0.438-6.255,1.342-9.089,2.647c-0.566,0.259-1.124,0.537-1.671,0.827
		c-0.539,0.287-1.07,0.586-1.59,0.902c-9.355,5.678-15.619,15.965-15.619,27.686c0,17.845,14.517,32.359,32.359,32.359
		C68.515,130.621,78.469,124.813,84.261,116.03L84.261,116.03z"/>
	<path fill="#233D58" d="M90.428,91.026c0.024-0.028,0.052-0.051,0.078-0.08c0.434-0.474,0.935-0.842,1.498-1.112
		c0.713-0.339,1.521-0.517,2.426-0.517c3.104,0,4.994,1.573,5.756,4.678h6.298c-0.855-5.577-4.768-10.254-12.054-10.254
		c-1.506,0-2.91,0.228-4.206,0.681c-0.541,0.19-1.063,0.418-1.567,0.688c-0.508,0.269-0.996,0.58-1.467,0.929
		c-0.485,0.362-0.95,0.764-1.395,1.209c-1.395,1.393-2.249,2.969-2.608,4.813c-0.213,1.06-0.362,2.422-0.449,4.075
		c0.058,0.701,0.095,1.408,0.095,2.125c0,1.007-0.066,1.998-0.179,2.978c0.037,2.91,0.215,5.158,0.533,6.744
		c0.359,1.799,1.213,3.418,2.608,4.812c0.076,0.076,0.154,0.147,0.23,0.222c0.431,0.409,0.879,0.78,1.345,1.114
		c0.47,0.336,0.957,0.633,1.463,0.892c1.67,0.853,3.534,1.28,5.597,1.28c3.598,0,6.567-1.125,9.042-3.644
		c2.202-2.338,3.057-5.082,3.057-9.758v-4.679H94.43v5.218h5.892v1.215c0,1.754-0.494,3.192-1.439,4.272
		c-1.123,1.213-2.609,1.797-4.453,1.797c-1.325,0-2.432-0.327-3.304-0.997c-0.252-0.195-0.486-0.412-0.698-0.666
		c-0.238-0.279-0.44-0.552-0.612-0.851c-0.467-0.812-0.709-1.826-0.825-3.748c-0.067-1.123-0.093-2.554-0.093-4.44
		c0-3.279,0.096-5.172,0.351-6.444C89.487,92.389,89.862,91.743,90.428,91.026L90.428,91.026z"/>
	<path fill="#4D97C0" d="M57.419,89.039c0.173,0,0.343,0.016,0.513,0.026l1.605-7.487c-0.694-0.089-1.399-0.14-2.118-0.14
		c-9.065,0-16.44,7.375-16.44,16.438c0,9.067,7.375,16.444,16.44,16.444c9.066,0,16.44-7.377,16.44-16.444
		c0-3.384-1.028-6.533-2.789-9.149l-5.962,4.809c0.729,1.283,1.15,2.763,1.15,4.341c0,4.877-3.966,8.842-8.84,8.842
		c-4.873,0-8.839-3.965-8.839-8.842C48.58,93.004,52.546,89.039,57.419,89.039L57.419,89.039z"/>
</g>
</svg>
